<svg width="148" height="36" fill="none" xmlns="http://www.w3.org/2000/svg"><path d="M148 18.973v4.5h-4.193v12.284h-6.167V23.35h-5.55c-2.467 0-3.7 1.946-3.7 4.014 0 2.31 1.973 4.013 4.317 4.135 1.356 0 2.22-.243 3.206-1.095v4.5c-1.48.852-2.59 1.095-4.316 1.095-4.934 0-9.25-3.77-9.25-8.635s2.836-8.392 9.25-8.392H148zm-57.227 0h-6.29v7.176l-7.4-7.176H72.15v16.784h6.167v-7.054l7.153 7.054h5.18V18.973h.123zm-39.713.486c-1.603-.73-3.083-.85-5.057-.85-4.81 0-9.126 3.891-9.126 8.756 0 4.986 3.946 8.635 9.62 8.635 1.973 0 2.96-.122 4.563-.973v-4.865c-.987.608-2.097 1.095-3.7 1.095-2.22 0-4.07-1.825-4.07-4.014 0-2.31 1.85-4.135 4.193-4.135 1.357 0 2.59.487 3.577 1.216V19.46zm55.13-.486H91.637v4.5h4.316v12.284h6.167V23.35h4.193v-4.378h-.123zm31.82-6.69l2.837 4.5H148s-4.193-5.715-6.413-8.634L148 0h-6.907l-2.96 4.014L135.173 0h-7.03l6.414 8.149c-2.22 2.919-6.414 8.635-6.414 8.635h7.154l2.713-4.5zm-17.267 4.622h6.66V.122h-6.66v16.783zM60.557.122H54.39v16.783h6.167v-6.08h5.303v6.08h6.167V.122H65.86v5.716h-5.303V.122zm58.09 0h-6.167v7.054L104.833.122H99.9v16.783h6.167V9.73l7.276 7.054h5.18V.122h.124zm-99.9 24.932v-3.04c0-1.703 1.356-2.311 1.356-2.311 1.234-.852 2.467-2.433 2.467-4.257 0-1.581-.617-2.797-1.727-3.77-.863-.73-1.973-1.095-1.973-2.311V6.08c0-.973 0-1.946 1.85-1.946 6.043 0 11.1 5.473 11.1 11.068 0 5.716-4.687 11.31-11.1 11.31-2.097 0-1.973-1.459-1.973-1.459zm-2.59-3.04v7.905c0 .973-.864 1.824-1.85 1.824h-8.14c-.987 0-1.974-.851-1.974-1.824V5.959c0-.973.864-1.824 1.85-1.824h8.264c1.85 0 1.85.973 1.85 1.946v3.284c0 1.216-1.11 1.46-1.974 2.31-1.233 1.095-1.726 2.19-1.85 3.77 0 1.947 1.234 3.406 2.467 4.258 0 0 1.357.73 1.357 2.31zm1.356-4.257c-1.356 0-2.466-1.095-2.466-2.433 0-1.338 1.11-2.432 2.466-2.432 1.357 0 2.467 1.095 2.467 2.432 0 1.338-1.11 2.433-2.467 2.433zM2.467.122C1.11.122 0 1.216 0 2.554v30.649c0 1.337 1.11 2.432 2.467 2.432h30.71c1.356 0 2.466-1.094 2.466-2.432V2.554c0-1.338-1.11-2.432-2.466-2.432H2.467zm41.686 4.013h.987c1.357 0 2.22.73 2.22 1.946 0 1.095-.863 1.946-2.22 1.946h-.987V4.135zm2.22-4.013h-8.51v16.783h6.167V12.04h2.343c3.454 0 7.03-2.432 7.03-5.959 0-3.649-2.343-5.96-7.03-5.96zm36.26 4.864c1.85 0 2.96 1.825 2.96 3.65 0 1.702-1.11 3.526-2.96 3.526-1.726 0-2.836-1.703-2.836-3.527s.986-3.649 2.836-3.649zM98.05.122H82.633c-3.083 0-4.81.608-6.536 2.189-1.727 1.58-2.344 3.648-2.344 6.203 0 2.432 1.11 4.743 2.344 5.959 1.48 1.338 3.453 2.432 6.536 2.432H98.05V12.77h-6.907v-2.31h6.907V6.446h-6.907v-2.31h6.907V.121zm13.937 28.702l1.356-4.135 1.357 4.135h-2.713zm4.563-9.851h-6.537l-7.03 16.784h6.29l1.234-3.04h5.426l1.234 3.04h6.29l-6.907-16.784zm-55.13 4.743c1.85 0 2.96 1.825 2.96 3.77 0 1.825-1.11 3.65-2.96 3.65-1.85 0-2.96-1.825-2.96-3.65 0-1.945 1.11-3.77 2.96-3.77zm9.25 3.649c0-4.987-3.577-8.757-9.25-8.757-5.427 0-9.127 3.892-9.127 8.757S55.87 36 61.42 36c5.673 0 9.25-3.77 9.25-8.635z" fill="#636C83"/></svg>