<svg width="140" height="40" fill="none" xmlns="http://www.w3.org/2000/svg"><path d="M15.924 5.825c-3.2-1.375-5.11-1.908-7.005-1.908-1.989 0-3.263.689-3.263 1.754 0 3.216 11.27 2.31 11.27 9.748 0 4.1-3.555 6.483-8.494 6.483-3.875 0-5.783-.97-7.98-2.068v-4.6c3.17 2.032 5.11 2.75 7.554 2.75 2.12 0 3.264-.718 3.264-1.97 0-3.5-11.27-2.218-11.27-9.876C0 2.445 3.297 0 8.432 0c2.477 0 4.713.503 7.492 1.66v4.165zm15.781 15.1c-1.878.66-3.467.974-5.051.974-5.25 0-8.642-2.959-8.642-7.46 0-4.42 3.524-7.541 8.446-7.541 1.52 0 3.465.377 5.019.937v3.383c-1.23-.633-2.655-.98-3.821-.98-2.817 0-4.63 1.64-4.63 4.168 0 2.564 1.782 4.252 4.467 4.252 1.133 0 2.14-.251 4.212-1.002v3.27zm40.921-8.144c.192-2.008 1.397-3.168 3.242-3.168 1.814 0 3.044 1.193 3.238 3.168h-6.48zm2.918-5.878c-4.605 0-7.884 3.148-7.884 7.578 0 4.463 3.41 7.418 8.664 7.418 1.164 0 3.98 0 6.66-1.92v-2.826c-2.196 1.515-3.649 2.037-5.524 2.037-2.96 0-4.77-1.483-4.935-4.013H83.25c.223-5.282-3.36-8.274-7.705-8.274zm9.519 14.733h4.689V7.169h-4.69v14.467zm17.735-3.955c-.976.851-1.788 1.192-2.789 1.192-2.209 0-3.606-1.758-3.606-4.394 0-2.888 1.397-4.553 3.761-4.553.846 0 1.95.377 2.634.85v6.905zm0-17.414v7.537c-1.266-.593-2.529-.906-3.894-.906-4.277 0-7.236 3.06-7.236 7.487 0 4.332 2.96 7.518 6.972 7.518 1.591 0 2.821-.404 4.158-1.436v1.164h4.688V.267h-4.688zm11.632 12.514c.196-2.008 1.394-3.168 3.236-3.168 1.817 0 3.059 1.193 3.253 3.168h-6.489zm2.916-5.878c-4.605 0-7.877 3.148-7.877 7.578 0 4.463 3.409 7.418 8.658 7.418 1.162 0 3.983 0 6.671-1.92v-2.826c-2.199 1.515-3.655 2.037-5.539 2.037-2.944 0-4.762-1.483-4.926-4.013h10.719c.223-5.282-3.363-8.274-7.706-8.274zm14.724 4.408h.069c1.391-3.01 2.949-4.422 4.758-4.422.937 0 1.745.345 3.105 1.319l-1.29 4.01c-1.232-.75-2.041-1.065-2.784-1.065-1.72 0-2.821 1.57-3.858 4.223v6.24h-4.695V7.154h4.695v4.157zM89.973 1.083c.44 1.124-.353 2.692-1.765 3.499-1.418.806-2.917.55-3.353-.574-.446-1.126.344-2.696 1.76-3.498 1.414-.81 2.913-.553 3.358.573zM48.592 12.428c0-3.92-2.753-5.525-5.47-5.525-1.846 0-3.365.754-4.723 2.418h-.065V.267h-4.693v21.327h4.693v-9.166c1.098-1.537 2.036-2.195 3.136-2.195 1.46 0 2.43 1.005 2.43 3.166v5.082c1.574-.783 3.174-1.263 4.692-1.442v-4.61zm11.769-5.53c-1.911 0-3.37.688-4.865 2.342V7.17h-4.691V17c1.625.157 3.699.879 4.691 2.07v-6.755c1.234-1.792 2.109-2.389 3.276-2.389 1.329 0 2.339.85 2.339 2.89v8.782h4.693V12.44c0-4.26-3.11-5.54-5.443-5.54zm8.037 18.854h-5.453v3.75h5.26v1.61h-5.26v3.867h5.616v1.607h-7.444V24.147h7.28v1.605zm4.45 10.842h1.67v-12.45h-1.67v12.45zm9.94-6.974c1.184 0 1.918.79 1.973 2.03h-4.253c.23-1.295 1-2.03 2.28-2.03zm-2.31 3.11h5.95c0-3.036-1.434-4.501-3.678-4.501-2.328 0-3.945 1.665-3.945 4.15 0 2.27 1.46 4.368 4.09 4.368 1.433 0 2.36-.309 3.385-.968v-1.573c-.99.628-1.952.99-2.963.99-1.618 0-2.579-.84-2.84-2.467zm16.854-2.191c-.96-.636-1.601-.823-2.333-.823-1.529 0-2.588 1.135-2.588 2.797 0 1.693 1.128 2.714 2.868 2.714.716 0 1.398-.18 2.24-.545v1.594c-.563.257-1.635.47-2.52.47-2.529 0-4.284-1.683-4.284-4.088 0-2.715 1.603-4.43 4.17-4.43.98 0 1.64.221 2.447.565v1.746zm7.614-2.154h2.681v1.457h-2.681v4.21c0 .964.721 1.242 1.208 1.242.604 0 1.227-.204 1.904-.608v1.516c-.587.313-1.487.545-2.038.545-1.819 0-2.738-1.093-2.738-2.573v-4.332h-1.473v-.18l3.137-2.972v1.695zm9.066 0v1.9h.034c.852-1.454 1.661-2.056 2.45-2.056.68 0 1.316.309 2.016.95l-.884 1.424c-.509-.487-1.167-.822-1.563-.822-1.15 0-2.053 1.131-2.053 2.533v4.28h-1.668v-8.209h1.668zm21.606 2.154c-.965-.636-1.606-.823-2.342-.823-1.525 0-2.575 1.135-2.575 2.797 0 1.693 1.128 2.714 2.858 2.714.717 0 1.395-.18 2.249-.545v1.594c-.575.257-1.649.47-2.532.47-2.525 0-4.288-1.683-4.288-4.088 0-2.715 1.612-4.43 4.178-4.43.982 0 1.635.221 2.452.565v1.746zm-12.684 6.055h1.669v-8.208h-1.669v8.208zm1.738-11.157c.163.396-.122.956-.624 1.241-.506.286-1.041.195-1.194-.202-.152-.401.124-.957.632-1.243.501-.29 1.034-.197 1.186.204zm-74.756.663c-.295 0-.42.047-.54.178-.047.05-.066.101-.083.204l-1.497 5.497c-.352 1.928-2.798 3.854-5.988 3.854h-4.434l.77-2.825h2.848c.29 0 .518-.105.708-.31.07-.08.161-.205.173-.333l1.183-4.803c.348-1.929 2.454-4.06 5.642-4.06h4.541l-.58 2.599h-2.743zm1.023 3.35l.506-1.778h4.614c.569-2.579.12-4.968-1.496-6.533-3.273-3.168-10.12-2.091-15.22 2.632-.797.733-1.47 1.526-2.083 2.337h2.778l-.646 1.782h-3.319c-.317.562-.614 1.12-.842 1.685h3.935l-.63 1.783H34.67c-.66 2.723-.24 5.262 1.424 6.875 3.232 3.127 10.058 2.028 15.156-2.695.893-.821 1.63-1.708 2.295-2.618h-3.568l.544-1.779h4.172c.306-.565.587-1.125.807-1.69h-4.56z" fill="#636C83"/></svg>