<svg width="44" height="88" fill="none" xmlns="http://www.w3.org/2000/svg"><g filter="url(#filter0_ii_26_5306)"><path d="M43.808 33.533a1.7 1.7 0 00-.54-.676 1.268 1.268 0 00-.743-.248H23.199l3.24-30.585a2.186 2.186 0 00-.22-1.169 1.59 1.59 0 00-.76-.75 1.218 1.218 0 00-.971-.008 1.575 1.575 0 00-.768.736L.22 51.703a2.148 2.148 0 00-.22.917c-.005.325.06.645.188.928a1.7 1.7 0 00.54.682c.227.164.485.25.747.25h19.037l-2.568 30.632c-.025.408.06.815.244 1.155.183.34.454.596.768.725s.654.124.966-.013c.312-.138.578-.4.755-.746l23.114-50.865a2.15 2.15 0 00.209-.914 2.167 2.167 0 00-.192-.92z" fill="#F0F1F4"/></g><defs><filter id="filter0_ii_26_5306" x="-4" y="-4" width="52" height="95.085" filterUnits="userSpaceOnUse" color-interpolation-filters="sRGB"><feFlood flood-opacity="0" result="BackgroundImageFix"/><feBlend in="SourceGraphic" in2="BackgroundImageFix" result="shape"/><feColorMatrix in="SourceAlpha" values="0 0 0 0 0 0 0 0 0 0 0 0 0 0 0 0 0 0 127 0" result="hardAlpha"/><feOffset dx="-4" dy="-4"/><feGaussianBlur stdDeviation="4"/><feComposite in2="hardAlpha" operator="arithmetic" k2="-1" k3="1"/><feColorMatrix values="0 0 0 0 1 0 0 0 0 1 0 0 0 0 1 0 0 0 1 0"/><feBlend in2="shape" result="effect1_innerShadow_26_5306"/><feColorMatrix in="SourceAlpha" values="0 0 0 0 0 0 0 0 0 0 0 0 0 0 0 0 0 0 127 0" result="hardAlpha"/><feOffset dx="4" dy="4"/><feGaussianBlur stdDeviation="5"/><feComposite in2="hardAlpha" operator="arithmetic" k2="-1" k3="1"/><feColorMatrix values="0 0 0 0 0.6 0 0 0 0 0.627451 0 0 0 0 0.698039 0 0 0 0.5 0"/><feBlend in2="effect1_innerShadow_26_5306" result="effect2_innerShadow_26_5306"/></filter></defs></svg>