<svg width="108" height="107" fill="none" xmlns="http://www.w3.org/2000/svg"><g filter="url(#filter0_dd_253_6225)"><path d="M53.613 44.033c-1.353 2.125-2.707 4.25-4.157 6.376-.677.966.193 2.415 1.353 2.415h3.288c-.967 1.642-2.03 3.188-2.998 4.83-1.063 1.739 1.547 3.284 2.61 1.546 1.548-2.416 2.998-4.83 4.545-7.149.677-1.063-.193-2.415-1.353-2.415h-3.288l2.61-4.057c.774-1.16-.29-2.319-1.353-2.319-.483.097-.967.29-1.257.773zM39.401 62.29c-.097-.097-.194-.386 0-.773l13.825-24.344c.194-.386.484-.386.677-.386.097 0 .484 0 .677.386l13.73 24.344c.193.386.096.676 0 .773-.097.097-.29.386-.677.386H39.98c-.387 0-.58-.29-.58-.386zm11.118-26.76L36.693 59.877c-.676 1.256-.676 2.705 0 3.864.677 1.256 1.934 1.932 3.288 1.932h27.748c1.354 0 2.61-.773 3.288-1.932.676-1.256.676-2.705 0-3.864L57.19 35.532c-.677-1.256-1.934-1.932-3.288-1.932-1.45 0-2.61.773-3.384 1.932zm29.49 31.3h5.897v13.621h-5.898v-13.62zm0-40.09h5.897v13.621h-5.898v-13.62zM22.094 92.72V14.279c0-1.739 1.354-3.091 2.997-3.091h55.11c.58 0 .968.483.968 1.063v.096c-.29-.096-.484-.096-.774-.096H27.218c-2.127 0-3.867 1.738-3.867 3.96v74.385c0 2.125 1.74 3.96 3.867 3.96h53.274c.29 0 .483 0 .773-.096v.386c0 .58-.483 1.063-.967 1.063h-55.11c-1.74-.097-3.094-1.546-3.094-3.188zM25.09 8C21.707 8 19 10.802 19 14.28v78.44c0 3.478 2.707 6.28 6.091 6.28h55.11c2.224 0 4.061-1.835 4.061-4.154v-11.11h2.03c1.451 0 2.708-1.255 2.708-2.8V66.444c0-1.546-1.16-2.802-2.707-2.802h-2.03v-20.19h2.03c1.45 0 2.707-1.256 2.707-2.801V26.355c0-1.546-1.16-2.802-2.707-2.802h-2.03V12.154C84.262 9.835 82.424 8 80.201 8h-55.11z" fill="url(#paint0_linear_253_6225)"/></g><g filter="url(#filter1_ii_253_6225)"><path d="M50.536 31c1.54-2.667 5.389-2.667 6.928 0L78.25 67c1.54 2.667-.385 6-3.464 6h-41.57c-3.079 0-5.003-3.333-3.464-6l20.785-36z" fill="#D3D6DE"/></g><path d="M61.49 50.913h0a.076.076 0 00-.028-.028.063.063 0 00-.032-.01h-8.035l.072-.563 1.251-9.723a.092.092 0 00-.013-.053.075.075 0 00-.038-.032.064.064 0 00-.043 0 .074.074 0 00-.034.024l-9.07 16.168-.004.007-.004.007a.088.088 0 00-.002.087l-.438.24.439-.24a.075.075 0 00.027.029c.01.006.021.009.032.009l15.92-5.922zm0 0a.087.087 0 01-.002.087h0l-.007.012-8.92 16.168a.074.074 0 01-.034.025.064.064 0 01-.043 0 .075.075 0 01-.038-.03l-.419.274.419-.274a.09.09 0 01-.015-.053l.991-9.736.056-.551m8.011-5.922l-8.01 5.922m0 0h-.554m.553 0h-.553m0 0H45.57h7.355z" fill="#F0F1F4" stroke="#D3D6DE"/><defs><filter id="filter0_dd_253_6225" x="11" y="0" width="86" height="107" filterUnits="userSpaceOnUse" color-interpolation-filters="sRGB"><feFlood flood-opacity="0" result="BackgroundImageFix"/><feColorMatrix in="SourceAlpha" values="0 0 0 0 0 0 0 0 0 0 0 0 0 0 0 0 0 0 127 0" result="hardAlpha"/><feMorphology radius="2" operator="dilate" in="SourceAlpha" result="effect1_dropShadow_253_6225"/><feOffset dx="-2" dy="-2"/><feGaussianBlur stdDeviation="2"/><feColorMatrix values="0 0 0 0 1 0 0 0 0 1 0 0 0 0 1 0 0 0 0.8 0"/><feBlend in2="BackgroundImageFix" result="effect1_dropShadow_253_6225"/><feColorMatrix in="SourceAlpha" values="0 0 0 0 0 0 0 0 0 0 0 0 0 0 0 0 0 0 127 0" result="hardAlpha"/><feMorphology radius="2" operator="dilate" in="SourceAlpha" result="effect2_dropShadow_253_6225"/><feOffset dx="2" dy="2"/><feGaussianBlur stdDeviation="2"/><feColorMatrix values="0 0 0 0 0.388235 0 0 0 0 0.423529 0 0 0 0 0.513726 0 0 0 0.6 0"/><feBlend in2="effect1_dropShadow_253_6225" result="effect2_dropShadow_253_6225"/><feBlend in="SourceGraphic" in2="effect2_dropShadow_253_6225" result="shape"/></filter><filter id="filter1_ii_253_6225" x="27.211" y="27" width="53.578" height="48" filterUnits="userSpaceOnUse" color-interpolation-filters="sRGB"><feFlood flood-opacity="0" result="BackgroundImageFix"/><feBlend in="SourceGraphic" in2="BackgroundImageFix" result="shape"/><feColorMatrix in="SourceAlpha" values="0 0 0 0 0 0 0 0 0 0 0 0 0 0 0 0 0 0 127 0" result="hardAlpha"/><feOffset dx="-2" dy="-2"/><feGaussianBlur stdDeviation="2"/><feComposite in2="hardAlpha" operator="arithmetic" k2="-1" k3="1"/><feColorMatrix values="0 0 0 0 1 0 0 0 0 1 0 0 0 0 1 0 0 0 1 0"/><feBlend in2="shape" result="effect1_innerShadow_253_6225"/><feColorMatrix in="SourceAlpha" values="0 0 0 0 0 0 0 0 0 0 0 0 0 0 0 0 0 0 127 0" result="hardAlpha"/><feOffset dx="2" dy="2"/><feGaussianBlur stdDeviation="2.5"/><feComposite in2="hardAlpha" operator="arithmetic" k2="-1" k3="1"/><feColorMatrix values="0 0 0 0 0.6 0 0 0 0 0.627451 0 0 0 0 0.698039 0 0 0 0.5 0"/><feBlend in2="effect1_innerShadow_253_6225" result="effect2_innerShadow_253_6225"/></filter><linearGradient id="paint0_linear_253_6225" x1="19.438" y1="8" x2="111.389" y2="50.107" gradientUnits="userSpaceOnUse"><stop stop-color="#F0F1F4"/><stop offset="1" stop-color="#D3D6DE"/></linearGradient></defs></svg>