<svg width="113" height="113" fill="none" xmlns="http://www.w3.org/2000/svg"><g filter="url(#filter0_dd_253_6212)"><path d="M81.018 14.49v-4.8c0-1.078.975-1.666 1.852-1.666.878 0 1.755.49 1.755 1.666v4.898h1.56c1.95 0 3.51 1.567 3.51 3.526v6.563h10.723c2.535 0 4.582 2.057 4.582 4.604v9.012c0 2.546-2.047 4.604-4.582 4.604h-4.094v57.499c0 2.547-2.048 4.604-4.582 4.604H19.6c-2.535 0-4.582-2.057-4.582-4.604V42.798h-2.437C10.047 42.798 8 40.742 8 38.195v-9.012c0-2.547 2.047-4.604 4.582-4.604h8.774v-6.563c0-1.96 1.56-3.526 3.51-3.526h1.56v-4.8c0-2.253 3.509-2.253 3.509 0v4.8h1.56a3.502 3.502 0 013.509 3.526v6.563h13.648v-6.563c0-1.96 1.56-3.526 3.51-3.526h1.56v-4.8c0-2.253 3.51-2.253 3.51 0v4.8h1.559c1.95 0 3.51 1.567 3.51 3.526v6.563h13.648v-6.563c0-1.96 1.56-3.526 3.51-3.526h1.56z" fill="url(#paint0_linear_253_6212)"/></g><g filter="url(#filter1_ii_253_6212)"><rect x="26.863" y="71.907" width="20.269" height="16.184" rx="2" fill="#D3D6DE"/></g><g filter="url(#filter2_ii_253_6212)"><rect x="26.863" y="53.7" width="20.269" height="16.184" rx="2" fill="#D3D6DE"/></g><g filter="url(#filter3_ii_253_6212)"><rect x="65" y="54" width="22" height="51" rx="2" fill="#D3D6DE"/></g><path d="M83.93 68.908a.538.538 0 00-.466-.273h-7.028l1.178-9.037a.543.543 0 00-.356-.567.538.538 0 00-.632.215l-8.547 15.03a.54.54 0 00.457.82h6.923l-.934 9.05a.544.544 0 00.368.556.537.537 0 00.626-.224l8.405-15.028a.54.54 0 00.006-.542z" fill="#F0F1F4"/><path stroke="#D3D6DE" d="M68.5 59.5h15v25h-15z"/><defs><filter id="filter0_dd_253_6212" x="0" y="0" width="113" height="113" filterUnits="userSpaceOnUse" color-interpolation-filters="sRGB"><feFlood flood-opacity="0" result="BackgroundImageFix"/><feColorMatrix in="SourceAlpha" values="0 0 0 0 0 0 0 0 0 0 0 0 0 0 0 0 0 0 127 0" result="hardAlpha"/><feMorphology radius="2" operator="dilate" in="SourceAlpha" result="effect1_dropShadow_253_6212"/><feOffset dx="-2" dy="-2"/><feGaussianBlur stdDeviation="2"/><feColorMatrix values="0 0 0 0 1 0 0 0 0 1 0 0 0 0 1 0 0 0 0.8 0"/><feBlend in2="BackgroundImageFix" result="effect1_dropShadow_253_6212"/><feColorMatrix in="SourceAlpha" values="0 0 0 0 0 0 0 0 0 0 0 0 0 0 0 0 0 0 127 0" result="hardAlpha"/><feMorphology radius="2" operator="dilate" in="SourceAlpha" result="effect2_dropShadow_253_6212"/><feOffset dx="2" dy="2"/><feGaussianBlur stdDeviation="2"/><feColorMatrix values="0 0 0 0 0.388235 0 0 0 0 0.423529 0 0 0 0 0.513726 0 0 0 0.6 0"/><feBlend in2="effect1_dropShadow_253_6212" result="effect2_dropShadow_253_6212"/><feBlend in="SourceGraphic" in2="effect2_dropShadow_253_6212" result="shape"/></filter><filter id="filter1_ii_253_6212" x="24.863" y="69.907" width="24.27" height="20.184" filterUnits="userSpaceOnUse" color-interpolation-filters="sRGB"><feFlood flood-opacity="0" result="BackgroundImageFix"/><feBlend in="SourceGraphic" in2="BackgroundImageFix" result="shape"/><feColorMatrix in="SourceAlpha" values="0 0 0 0 0 0 0 0 0 0 0 0 0 0 0 0 0 0 127 0" result="hardAlpha"/><feOffset dx="-2" dy="-2"/><feGaussianBlur stdDeviation="2"/><feComposite in2="hardAlpha" operator="arithmetic" k2="-1" k3="1"/><feColorMatrix values="0 0 0 0 1 0 0 0 0 1 0 0 0 0 1 0 0 0 1 0"/><feBlend in2="shape" result="effect1_innerShadow_253_6212"/><feColorMatrix in="SourceAlpha" values="0 0 0 0 0 0 0 0 0 0 0 0 0 0 0 0 0 0 127 0" result="hardAlpha"/><feOffset dx="2" dy="2"/><feGaussianBlur stdDeviation="2.5"/><feComposite in2="hardAlpha" operator="arithmetic" k2="-1" k3="1"/><feColorMatrix values="0 0 0 0 0.6 0 0 0 0 0.627451 0 0 0 0 0.698039 0 0 0 0.5 0"/><feBlend in2="effect1_innerShadow_253_6212" result="effect2_innerShadow_253_6212"/></filter><filter id="filter2_ii_253_6212" x="24.863" y="51.7" width="24.27" height="20.184" filterUnits="userSpaceOnUse" color-interpolation-filters="sRGB"><feFlood flood-opacity="0" result="BackgroundImageFix"/><feBlend in="SourceGraphic" in2="BackgroundImageFix" result="shape"/><feColorMatrix in="SourceAlpha" values="0 0 0 0 0 0 0 0 0 0 0 0 0 0 0 0 0 0 127 0" result="hardAlpha"/><feOffset dx="-2" dy="-2"/><feGaussianBlur stdDeviation="2"/><feComposite in2="hardAlpha" operator="arithmetic" k2="-1" k3="1"/><feColorMatrix values="0 0 0 0 1 0 0 0 0 1 0 0 0 0 1 0 0 0 1 0"/><feBlend in2="shape" result="effect1_innerShadow_253_6212"/><feColorMatrix in="SourceAlpha" values="0 0 0 0 0 0 0 0 0 0 0 0 0 0 0 0 0 0 127 0" result="hardAlpha"/><feOffset dx="2" dy="2"/><feGaussianBlur stdDeviation="2.5"/><feComposite in2="hardAlpha" operator="arithmetic" k2="-1" k3="1"/><feColorMatrix values="0 0 0 0 0.6 0 0 0 0 0.627451 0 0 0 0 0.698039 0 0 0 0.5 0"/><feBlend in2="effect1_innerShadow_253_6212" result="effect2_innerShadow_253_6212"/></filter><filter id="filter3_ii_253_6212" x="63" y="52" width="26" height="55" filterUnits="userSpaceOnUse" color-interpolation-filters="sRGB"><feFlood flood-opacity="0" result="BackgroundImageFix"/><feBlend in="SourceGraphic" in2="BackgroundImageFix" result="shape"/><feColorMatrix in="SourceAlpha" values="0 0 0 0 0 0 0 0 0 0 0 0 0 0 0 0 0 0 127 0" result="hardAlpha"/><feOffset dx="-2" dy="-2"/><feGaussianBlur stdDeviation="2"/><feComposite in2="hardAlpha" operator="arithmetic" k2="-1" k3="1"/><feColorMatrix values="0 0 0 0 1 0 0 0 0 1 0 0 0 0 1 0 0 0 1 0"/><feBlend in2="shape" result="effect1_innerShadow_253_6212"/><feColorMatrix in="SourceAlpha" values="0 0 0 0 0 0 0 0 0 0 0 0 0 0 0 0 0 0 127 0" result="hardAlpha"/><feOffset dx="2" dy="2"/><feGaussianBlur stdDeviation="2.5"/><feComposite in2="hardAlpha" operator="arithmetic" k2="-1" k3="1"/><feColorMatrix values="0 0 0 0 0.6 0 0 0 0 0.627451 0 0 0 0 0.698039 0 0 0 0.5 0"/><feBlend in2="effect1_innerShadow_253_6212" result="effect2_innerShadow_253_6212"/></filter><linearGradient id="paint0_linear_253_6212" x1="8.606" y1="8" x2="122.413" y2="75.75" gradientUnits="userSpaceOnUse"><stop stop-color="#F0F1F4"/><stop offset="1" stop-color="#D3D6DE"/></linearGradient></defs></svg>