<svg width="108" height="113" fill="none" xmlns="http://www.w3.org/2000/svg"><g filter="url(#filter0_dd_253_6220)"><path d="M52.17 10.989l-.319 2.63H31.413c-2.224 0-2.224 3.473 0 3.473H51.64l-1.06 9.786H23.259c-2.224 0-2.224 3.473 0 3.473h26.9l-.954 9.786H30.777c-2.224 0-2.224 3.472 0 3.472h18.11l-5.931 57.982a1.932 1.932 0 00.53 1.683c.423.421 1.058.737 1.694.737h18.533c.635 0 1.27-.316 1.694-.737a1.932 1.932 0 00.53-1.683L60.006 43.61h18.215c2.224 0 2.224-3.473 0-3.473H59.688l-.953-9.786H85.74c2.224 0 2.224-3.473 0-3.473H58.312l-.953-9.786h20.333c2.224 0 2.224-3.473 0-3.473H56.935l-.318-2.63c-.106-1.158-1.059-2-2.224-2-1.059 0-2.012.842-2.224 2z" fill="url(#paint0_linear_253_6220)"/></g><path d="M30.25 48.897c-.414 0-.69-.155-.871-.367a1.344 1.344 0 01-.297-.87c0-.332.107-.646.297-.868.18-.212.457-.367.87-.367h6.567c.413 0 .69.155.87.367.19.222.297.536.297.869 0 .333-.107.646-.297.869-.18.212-.457.367-.87.367H30.25zm41.937 0c-.413 0-.69-.155-.87-.367a1.344 1.344 0 01-.298-.87c0-.332.107-.646.297-.868.181-.212.458-.367.871-.367h6.566c.413 0 .69.155.87.367.19.222.298.536.298.869 0 .333-.107.646-.297.869-.181.212-.458.367-.871.367h-6.566zM22.731 35.638c-.414 0-.69-.155-.871-.367a1.344 1.344 0 01-.297-.869c0-.333.107-.647.297-.869.18-.212.457-.367.87-.367h6.566c.414 0 .69.155.871.367.19.222.297.536.297.869 0 .333-.107.647-.297.869-.18.212-.457.367-.87.367H22.73zm56.975 0c-.413 0-.69-.155-.87-.367a1.344 1.344 0 01-.298-.869c0-.333.108-.647.297-.869.181-.212.458-.367.871-.367h6.566c.413 0 .69.155.87.367.19.222.298.536.298.869 0 .333-.107.647-.297.869-.181.212-.458.367-.87.367h-6.567zM30.78 22.38c-.413 0-.69-.156-.87-.368a1.345 1.345 0 01-.298-.869c0-.333.107-.646.297-.869.181-.212.458-.367.871-.367h6.566c.413 0 .69.155.87.367.19.223.298.536.298.87 0 .332-.107.646-.297.868-.181.212-.458.367-.871.367H30.78zm40.879 0c-.414 0-.69-.156-.871-.368a1.344 1.344 0 01-.297-.869c0-.333.107-.646.297-.869.18-.212.457-.367.87-.367h6.567c.413 0 .69.155.87.367.19.223.297.536.297.87 0 .332-.107.646-.297.868-.18.212-.457.367-.87.367h-6.567z" fill="#F0F1F4" stroke="#D3D6DE"/><defs><linearGradient id="paint0_linear_253_6220" x1="22.001" y1="8.989" x2="111.391" y2="45.849" gradientUnits="userSpaceOnUse"><stop stop-color="#F0F1F4"/><stop offset="1" stop-color="#D3D6DE"/></linearGradient><filter id="filter0_dd_253_6220" x="13.59" y=".989" width="81.82" height="111.022" filterUnits="userSpaceOnUse" color-interpolation-filters="sRGB"><feFlood flood-opacity="0" result="BackgroundImageFix"/><feColorMatrix in="SourceAlpha" values="0 0 0 0 0 0 0 0 0 0 0 0 0 0 0 0 0 0 127 0" result="hardAlpha"/><feMorphology radius="2" operator="dilate" in="SourceAlpha" result="effect1_dropShadow_253_6220"/><feOffset dx="-2" dy="-2"/><feGaussianBlur stdDeviation="2"/><feColorMatrix values="0 0 0 0 1 0 0 0 0 1 0 0 0 0 1 0 0 0 0.8 0"/><feBlend in2="BackgroundImageFix" result="effect1_dropShadow_253_6220"/><feColorMatrix in="SourceAlpha" values="0 0 0 0 0 0 0 0 0 0 0 0 0 0 0 0 0 0 127 0" result="hardAlpha"/><feMorphology radius="2" operator="dilate" in="SourceAlpha" result="effect2_dropShadow_253_6220"/><feOffset dx="2" dy="2"/><feGaussianBlur stdDeviation="2"/><feColorMatrix values="0 0 0 0 0.388235 0 0 0 0 0.423529 0 0 0 0 0.513726 0 0 0 0.6 0"/><feBlend in2="effect1_dropShadow_253_6220" result="effect2_dropShadow_253_6220"/><feBlend in="SourceGraphic" in2="effect2_dropShadow_253_6220" result="shape"/></filter></defs></svg>