<svg width="876" height="376" fill="none" xmlns="http://www.w3.org/2000/svg"><g filter="url(#filter0_dd_145_6023)"><path d="M488 16a8 8 0 018-8h364a8 8 0 018 8v344a8 8 0 01-8 8H488V16z" fill="url(#paint0_linear_145_6023)"/><path stroke="#fff" d="M518.5 8v360m40-360v360m40-360v360m40-360v360m40-360v360m40-360v360m40-360v360m40-360v360m40-360v360"/></g><g filter="url(#filter1_ii_145_6023)"><path d="M598 281a8 8 0 018-8h184a8 8 0 018 8v87H598v-87z" fill="#F0F1F4"/></g><path d="M652.679 56.574a1 1 0 011 1v2.748a1 1 0 01-1 1H640a1 1 0 01-1-1v-22.87a1 1 0 011-1h12.431a1 1 0 011 1V40.2a1 1 0 01-1 1h-6.709a1 1 0 00-1 1v3.2a1 1 0 001 1h5.713a1 1 0 011 1v2.748a1 1 0 01-1 1h-5.713a1 1 0 00-1 1v3.426a1 1 0 001 1h6.957zm18.909 0a1 1 0 011 1v2.748a1 1 0 01-1 1h-11.933a1 1 0 01-1-1v-22.87a1 1 0 011-1h3.474a1 1 0 011 1v18.122a1 1 0 001 1h6.459zm18.412 0a1 1 0 011 1v2.748a1 1 0 01-1 1h-12.68a1 1 0 01-1-1v-22.87a1 1 0 011-1h12.182a1 1 0 011 1V40.2a1 1 0 01-1 1h-6.708a1 1 0 00-1 1v3.2a1 1 0 001 1h5.962a1 1 0 011 1v2.748a1 1 0 01-1 1h-5.962a1 1 0 00-1 1v3.426a1 1 0 001 1H690zm13.692-3.125a1 1 0 00-1.688-.119l-.361.493a.999.999 0 00-.194.591v5.908a1 1 0 01-1 1h-3.473a1 1 0 01-1-1v-22.87a1 1 0 011-1h3.473a1 1 0 011 1v5.399c0 .823 1.096 1.105 1.493.384l3.447-6.265a1 1 0 01.876-.518h4.048a1 1 0 01.841 1.54l-5.646 8.796a1 1 0 00-.021 1.046l7.018 11.982a1 1 0 01-.863 1.506h-4.126a1 1 0 01-.881-.527l-3.943-7.346zM732.55 40.2a1 1 0 01-1 1h-3.473a1 1 0 00-1 1v18.122a1 1 0 01-1 1h-3.723a1 1 0 01-1-1V42.2a1 1 0 00-1-1h-3.474a1 1 0 01-1-1v-2.748a1 1 0 011-1h14.67a1 1 0 011 1V40.2zm9.455 7.009a1 1 0 001 1h1.239c1.991 0 2.986-1.13 2.986-3.392 0-2.26-.995-3.391-2.986-3.391h-1.239a1 1 0 00-1 1v4.782zm2.271 6.285a1 1 0 00-.887-.538h-.384a1 1 0 00-1 1v6.366a1 1 0 01-1 1h-3.722a1 1 0 01-1-1v-22.87a1 1 0 011-1h6.961c5.474 0 8.709 3.165 8.709 8.365 0 2.977-1.15 5.257-2.946 6.687-.419.334-.582.919-.324 1.388l3.947 7.174a1 1 0 01-.876 1.482h-3.673a1 1 0 01-.887-.538l-3.918-7.516zm25.347-.085V44.59c0-2.26-.996-3.617-3.235-3.617s-2.986 1.13-2.986 3.617v8.818c0 2.26.996 3.617 3.235 3.617s2.986-1.356 2.986-3.617zm-12.192 0V44.59c0-5.426 3.483-8.591 8.957-8.591 5.723 0 8.957 3.165 8.957 8.591v8.818c0 5.426-3.483 8.591-8.957 8.591-5.474-.226-8.957-3.391-8.957-8.591zm21.446 1.677c-.055-.55.399-.999.951-.999h3.723c.552 0 .978.454 1.097.994.295 1.338 1.258 1.945 2.888 1.945 1.742 0 2.737-.904 2.737-2.26 0-4.07-10.947-4.523-10.947-12.21 0-3.843 2.985-6.556 7.961-6.556 4.828 0 7.744 2.316 8.16 6.235.058.55-.397 1-.949 1h-3.723c-.552 0-.971-.459-1.123-.99-.277-.964-1.027-1.497-2.365-1.497-1.492 0-2.239.678-2.239 1.809 0 3.843 10.948 4.07 10.948 11.982 0 4.07-3.235 7.009-8.709 7.009-4.631.21-7.97-2.126-8.41-6.462zm19.449-17.373a1 1 0 01.965-1.261h3.606a1 1 0 01.979.793l2.32 10.964c.488 1.772.975 4.848 1.229 6.885a.14.14 0 00.279 0c.253-2.037.741-5.113 1.229-6.886l2.32-10.963a1 1 0 01.978-.793h3.619a1 1 0 01.968 1.252l-5.949 22.87a1 1 0 01-.968.748h-4.432a1 1 0 01-.966-.74l-6.177-22.87zm27.023-1.261h-3.722a1 1 0 00-1 1v22.87a1 1 0 001 1h3.722a1 1 0 001-1v-22.87a1 1 0 00-1-1zM847 40.2a1 1 0 01-1 1h-3.474a1 1 0 00-1 1v18.122a1 1 0 01-1 1h-3.722a1 1 0 01-1-1V42.2a1 1 0 00-1-1h-3.474a1 1 0 01-1-1v-2.748a1 1 0 011-1H846a1 1 0 011 1V40.2z" fill="#636C83"/><path fill-rule="evenodd" clip-rule="evenodd" d="M18.229 142.629a.822.822 0 010-1.138l46.467-47.91a.8.8 0 01.352-.362.764.764 0 011.087.017c.151.156.227.36.228.564l21.197 21.854 21.639-22.073a.8.8 0 01.355-.362.779.779 0 011.099.017.81.81 0 01.231.564l22.43 22.881 22.404-23.1a.797.797 0 01.353-.363.763.763 0 011.086.018.82.82 0 01.229.564l21.551 22.221 21.77-22.44a.82.82 0 01.352-.362.764.764 0 011.087.017.82.82 0 01.229.564l21.06 21.709 21.272-21.928a.82.82 0 01.352-.362.764.764 0 011.087.017.82.82 0 01.229.564l28.653 29.537 29.171-29.756a.8.8 0 01.355-.362.779.779 0 011.099.017.81.81 0 01.231.564l21.417 21.847 21.406-22.066a.82.82 0 01.352-.362.764.764 0 011.087.017.82.82 0 01.229.564l22.187 22.872 22.637-23.091a.8.8 0 01.355-.362.779.779 0 011.099.017.81.81 0 01.231.564l21.05 21.473 21.265-21.692a.8.8 0 01.355-.362.779.779 0 011.099.017.81.81 0 01.231.564l46.885 47.826a.816.816 0 010 1.138.777.777 0 01-1.116 0l-46.719-47.657-20.885 21.304 24.72 25.215a.816.816 0 010 1.138.777.777 0 01-1.116 0l-24.719-25.215-22.377 22.826 1.214 1.251a.822.822 0 010 1.138.763.763 0 01-1.104 0l-1.22-1.257-1.1 1.122a.777.777 0 01-1.116 0 .816.816 0 010-1.138l1.107-1.128-20.776-21.415-21.013 21.434 1.22 1.244a.816.816 0 010 1.138.777.777 0 01-1.116 0l-1.219-1.244-1.087 1.109a.777.777 0 01-1.116 0 .816.816 0 010-1.138l1.087-1.109-22.017-22.459-23.968 24.706a.763.763 0 01-1.104 0 .822.822 0 010-1.138l23.962-24.7-21.257-21.684-28.796 29.374 16.633 17.145a.822.822 0 010 1.138.763.763 0 01-1.104 0l-16.639-17.151-16.681 17.016a.777.777 0 01-1.116 0 .816.816 0 010-1.138l16.688-17.022-28.484-29.362-20.896 21.54 24.232 24.979a.822.822 0 010 1.138.763.763 0 01-1.104 0l-24.232-24.979-21.396 22.055 1.732 1.786a.822.822 0 010 1.138.762.762 0 01-1.103 0l-1.733-1.786-1.602 1.651a.763.763 0 01-1.104 0 .822.822 0 010-1.138l1.602-1.651-20.894-21.543-21.904 22.579.736.75a.816.816 0 010 1.138.777.777 0 01-1.116 0l-.729-.744-.591.609a.763.763 0 01-1.104 0 .822.822 0 010-1.138l.585-.603-21.5-21.931-21.276 21.936.712.733a.824.824 0 010 1.138.763.763 0 01-1.104 0l-.711-.733-.581.598a.762.762 0 01-1.103 0 .822.822 0 010-1.138l.58-.598L87.56 117.93l-24.213 24.699a.777.777 0 01-1.116 0 .816.816 0 010-1.138l24.22-24.705-21.027-21.68-46.092 47.523a.763.763 0 01-1.103 0zm376.218-3.398l22.371-22.82-20.884-21.304-22.262 22.708 20.775 21.416zm-44.013.013l-22.024-22.465 21.025-21.672 22.018 22.697-21.019 21.44zm-149.499-.542l21.396-22.055-20.896-21.54-21.394 22.052 20.894 21.543zm-90 1.053l-22.266-22.957 21.265-21.691 22.271 22.718-21.27 21.93zm44.989-.011l-21.5-21.931 22.022-22.706 21.388 22.052-21.91 22.585z" fill="#1BC837"/><g filter="url(#filter2_dd_145_6023)"><path fill-rule="evenodd" clip-rule="evenodd" d="M189 96a8 8 0 018-8h102a8 8 0 018 8v42.909h173a8 8 0 018 8V368H16a8 8 0 01-8-8V146.909a8 8 0 018-8h173V96z" fill="url(#paint1_linear_145_6023)"/></g><g filter="url(#filter3_ii_145_6023)"><path fill-rule="evenodd" clip-rule="evenodd" d="M50.5 180c-1.38 0-2.5 1.194-2.5 2.667v54.666c0 1.473 1.12 2.667 2.5 2.667h35c1.38 0 2.5-1.194 2.5-2.667v-54.666c0-1.473-1.12-2.667-2.5-2.667h-35zm280 0c-1.381 0-2.5 1.194-2.5 2.667v54.666c0 1.473 1.119 2.667 2.5 2.667h35c1.381 0 2.5-1.194 2.5-2.667v-54.666c0-1.473-1.119-2.667-2.5-2.667h-35zM128 182.667c0-1.473 1.119-2.667 2.5-2.667h35c1.381 0 2.5 1.194 2.5 2.667v54.666c0 1.473-1.119 2.667-2.5 2.667h-35c-1.381 0-2.5-1.194-2.5-2.667v-54.666zM410.424 180c-1.339 0-2.424 1.194-2.424 2.667v54.666c0 1.473 1.085 2.667 2.424 2.667h35.152c1.339 0 2.424-1.194 2.424-2.667v-54.666c0-1.473-1.085-2.667-2.424-2.667h-35.152zM48 278.667c0-1.473 1.12-2.667 2.5-2.667h35c1.38 0 2.5 1.194 2.5 2.667v54.666c0 1.473-1.12 2.667-2.5 2.667h-35c-1.38 0-2.5-1.194-2.5-2.667v-54.666zM330.5 276c-1.381 0-2.5 1.194-2.5 2.667v54.666c0 1.473 1.119 2.667 2.5 2.667h35c1.381 0 2.5-1.194 2.5-2.667v-54.666c0-1.473-1.119-2.667-2.5-2.667h-35zM128 278.667c0-1.473 1.119-2.667 2.5-2.667h35c1.381 0 2.5 1.194 2.5 2.667v54.666c0 1.473-1.119 2.667-2.5 2.667h-35c-1.381 0-2.5-1.194-2.5-2.667v-54.666zM410.424 276c-1.339 0-2.424 1.194-2.424 2.667v54.666c0 1.473 1.085 2.667 2.424 2.667h35.152c1.339 0 2.424-1.194 2.424-2.667v-54.666c0-1.473-1.085-2.667-2.424-2.667h-35.152z" fill="#F0F1F4"/></g><g filter="url(#filter4_ii_145_6023)"><path d="M236 149.909a2.899 2.899 0 012.889-2.909h46.222a2.899 2.899 0 012.889 2.909v26.182a2.899 2.899 0 01-2.889 2.909h-46.222a2.899 2.899 0 01-2.889-2.909v-26.182z" fill="#F0F1F4"/></g><g filter="url(#filter5_ii_145_6023)"><path d="M236 191.909a2.899 2.899 0 012.889-2.909h46.222a2.899 2.899 0 012.889 2.909v26.182a2.899 2.899 0 01-2.889 2.909h-46.222a2.899 2.899 0 01-2.889-2.909v-26.182z" fill="#F0F1F4"/></g><g filter="url(#filter6_ii_145_6023)"><path d="M236 243.2c0-1.767 1.293-3.2 2.889-3.2h46.222c1.596 0 2.889 1.433 2.889 3.2v121.6c0 1.767-1.293 3.2-2.889 3.2h-46.222c-1.596 0-2.889-1.433-2.889-3.2V243.2z" fill="#F0F1F4"/></g><defs><filter id="filter0_dd_145_6023" x="480" y="0" width="396" height="376" filterUnits="userSpaceOnUse" color-interpolation-filters="sRGB"><feFlood flood-opacity="0" result="BackgroundImageFix"/><feColorMatrix in="SourceAlpha" values="0 0 0 0 0 0 0 0 0 0 0 0 0 0 0 0 0 0 127 0" result="hardAlpha"/><feMorphology radius="2" operator="dilate" in="SourceAlpha" result="effect1_dropShadow_145_6023"/><feOffset dx="-2" dy="-2"/><feGaussianBlur stdDeviation="2"/><feColorMatrix values="0 0 0 0 1 0 0 0 0 1 0 0 0 0 1 0 0 0 0.8 0"/><feBlend in2="BackgroundImageFix" result="effect1_dropShadow_145_6023"/><feColorMatrix in="SourceAlpha" values="0 0 0 0 0 0 0 0 0 0 0 0 0 0 0 0 0 0 127 0" result="hardAlpha"/><feMorphology radius="2" operator="dilate" in="SourceAlpha" result="effect2_dropShadow_145_6023"/><feOffset dx="2" dy="2"/><feGaussianBlur stdDeviation="2"/><feColorMatrix values="0 0 0 0 0.388235 0 0 0 0 0.423529 0 0 0 0 0.513726 0 0 0 0.6 0"/><feBlend in2="effect1_dropShadow_145_6023" result="effect2_dropShadow_145_6023"/><feBlend in="SourceGraphic" in2="effect2_dropShadow_145_6023" result="shape"/></filter><filter id="filter1_ii_145_6023" x="596" y="271" width="204" height="99" filterUnits="userSpaceOnUse" color-interpolation-filters="sRGB"><feFlood flood-opacity="0" result="BackgroundImageFix"/><feBlend in="SourceGraphic" in2="BackgroundImageFix" result="shape"/><feColorMatrix in="SourceAlpha" values="0 0 0 0 0 0 0 0 0 0 0 0 0 0 0 0 0 0 127 0" result="hardAlpha"/><feOffset dx="-2" dy="-2"/><feGaussianBlur stdDeviation="2"/><feComposite in2="hardAlpha" operator="arithmetic" k2="-1" k3="1"/><feColorMatrix values="0 0 0 0 1 0 0 0 0 1 0 0 0 0 1 0 0 0 1 0"/><feBlend in2="shape" result="effect1_innerShadow_145_6023"/><feColorMatrix in="SourceAlpha" values="0 0 0 0 0 0 0 0 0 0 0 0 0 0 0 0 0 0 127 0" result="hardAlpha"/><feOffset dx="2" dy="2"/><feGaussianBlur stdDeviation="2.5"/><feComposite in2="hardAlpha" operator="arithmetic" k2="-1" k3="1"/><feColorMatrix values="0 0 0 0 0.6 0 0 0 0 0.627451 0 0 0 0 0.698039 0 0 0 0.5 0"/><feBlend in2="effect1_innerShadow_145_6023" result="effect2_innerShadow_145_6023"/></filter><filter id="filter2_dd_145_6023" x="0" y="80" width="496" height="296" filterUnits="userSpaceOnUse" color-interpolation-filters="sRGB"><feFlood flood-opacity="0" result="BackgroundImageFix"/><feColorMatrix in="SourceAlpha" values="0 0 0 0 0 0 0 0 0 0 0 0 0 0 0 0 0 0 127 0" result="hardAlpha"/><feMorphology radius="2" operator="dilate" in="SourceAlpha" result="effect1_dropShadow_145_6023"/><feOffset dx="-2" dy="-2"/><feGaussianBlur stdDeviation="2"/><feColorMatrix values="0 0 0 0 1 0 0 0 0 1 0 0 0 0 1 0 0 0 0.8 0"/><feBlend in2="BackgroundImageFix" result="effect1_dropShadow_145_6023"/><feColorMatrix in="SourceAlpha" values="0 0 0 0 0 0 0 0 0 0 0 0 0 0 0 0 0 0 127 0" result="hardAlpha"/><feMorphology radius="2" operator="dilate" in="SourceAlpha" result="effect2_dropShadow_145_6023"/><feOffset dx="2" dy="2"/><feGaussianBlur stdDeviation="2"/><feColorMatrix values="0 0 0 0 0.388235 0 0 0 0 0.423529 0 0 0 0 0.513726 0 0 0 0.6 0"/><feBlend in2="effect1_dropShadow_145_6023" result="effect2_dropShadow_145_6023"/><feBlend in="SourceGraphic" in2="effect2_dropShadow_145_6023" result="shape"/></filter><filter id="filter3_ii_145_6023" x="46" y="178" width="404" height="160" filterUnits="userSpaceOnUse" color-interpolation-filters="sRGB"><feFlood flood-opacity="0" result="BackgroundImageFix"/><feBlend in="SourceGraphic" in2="BackgroundImageFix" result="shape"/><feColorMatrix in="SourceAlpha" values="0 0 0 0 0 0 0 0 0 0 0 0 0 0 0 0 0 0 127 0" result="hardAlpha"/><feOffset dx="-2" dy="-2"/><feGaussianBlur stdDeviation="2"/><feComposite in2="hardAlpha" operator="arithmetic" k2="-1" k3="1"/><feColorMatrix values="0 0 0 0 1 0 0 0 0 1 0 0 0 0 1 0 0 0 1 0"/><feBlend in2="shape" result="effect1_innerShadow_145_6023"/><feColorMatrix in="SourceAlpha" values="0 0 0 0 0 0 0 0 0 0 0 0 0 0 0 0 0 0 127 0" result="hardAlpha"/><feOffset dx="2" dy="2"/><feGaussianBlur stdDeviation="2.5"/><feComposite in2="hardAlpha" operator="arithmetic" k2="-1" k3="1"/><feColorMatrix values="0 0 0 0 0.6 0 0 0 0 0.627451 0 0 0 0 0.698039 0 0 0 0.5 0"/><feBlend in2="effect1_innerShadow_145_6023" result="effect2_innerShadow_145_6023"/></filter><filter id="filter4_ii_145_6023" x="234" y="145" width="56" height="36" filterUnits="userSpaceOnUse" color-interpolation-filters="sRGB"><feFlood flood-opacity="0" result="BackgroundImageFix"/><feBlend in="SourceGraphic" in2="BackgroundImageFix" result="shape"/><feColorMatrix in="SourceAlpha" values="0 0 0 0 0 0 0 0 0 0 0 0 0 0 0 0 0 0 127 0" result="hardAlpha"/><feOffset dx="-2" dy="-2"/><feGaussianBlur stdDeviation="2"/><feComposite in2="hardAlpha" operator="arithmetic" k2="-1" k3="1"/><feColorMatrix values="0 0 0 0 1 0 0 0 0 1 0 0 0 0 1 0 0 0 1 0"/><feBlend in2="shape" result="effect1_innerShadow_145_6023"/><feColorMatrix in="SourceAlpha" values="0 0 0 0 0 0 0 0 0 0 0 0 0 0 0 0 0 0 127 0" result="hardAlpha"/><feOffset dx="2" dy="2"/><feGaussianBlur stdDeviation="2.5"/><feComposite in2="hardAlpha" operator="arithmetic" k2="-1" k3="1"/><feColorMatrix values="0 0 0 0 0.6 0 0 0 0 0.627451 0 0 0 0 0.698039 0 0 0 0.5 0"/><feBlend in2="effect1_innerShadow_145_6023" result="effect2_innerShadow_145_6023"/></filter><filter id="filter5_ii_145_6023" x="234" y="187" width="56" height="36" filterUnits="userSpaceOnUse" color-interpolation-filters="sRGB"><feFlood flood-opacity="0" result="BackgroundImageFix"/><feBlend in="SourceGraphic" in2="BackgroundImageFix" result="shape"/><feColorMatrix in="SourceAlpha" values="0 0 0 0 0 0 0 0 0 0 0 0 0 0 0 0 0 0 127 0" result="hardAlpha"/><feOffset dx="-2" dy="-2"/><feGaussianBlur stdDeviation="2"/><feComposite in2="hardAlpha" operator="arithmetic" k2="-1" k3="1"/><feColorMatrix values="0 0 0 0 1 0 0 0 0 1 0 0 0 0 1 0 0 0 1 0"/><feBlend in2="shape" result="effect1_innerShadow_145_6023"/><feColorMatrix in="SourceAlpha" values="0 0 0 0 0 0 0 0 0 0 0 0 0 0 0 0 0 0 127 0" result="hardAlpha"/><feOffset dx="2" dy="2"/><feGaussianBlur stdDeviation="2.5"/><feComposite in2="hardAlpha" operator="arithmetic" k2="-1" k3="1"/><feColorMatrix values="0 0 0 0 0.6 0 0 0 0 0.627451 0 0 0 0 0.698039 0 0 0 0.5 0"/><feBlend in2="effect1_innerShadow_145_6023" result="effect2_innerShadow_145_6023"/></filter><filter id="filter6_ii_145_6023" x="234" y="238" width="56" height="132" filterUnits="userSpaceOnUse" color-interpolation-filters="sRGB"><feFlood flood-opacity="0" result="BackgroundImageFix"/><feBlend in="SourceGraphic" in2="BackgroundImageFix" result="shape"/><feColorMatrix in="SourceAlpha" values="0 0 0 0 0 0 0 0 0 0 0 0 0 0 0 0 0 0 127 0" result="hardAlpha"/><feOffset dx="-2" dy="-2"/><feGaussianBlur stdDeviation="2"/><feComposite in2="hardAlpha" operator="arithmetic" k2="-1" k3="1"/><feColorMatrix values="0 0 0 0 1 0 0 0 0 1 0 0 0 0 1 0 0 0 1 0"/><feBlend in2="shape" result="effect1_innerShadow_145_6023"/><feColorMatrix in="SourceAlpha" values="0 0 0 0 0 0 0 0 0 0 0 0 0 0 0 0 0 0 127 0" result="hardAlpha"/><feOffset dx="2" dy="2"/><feGaussianBlur stdDeviation="2.5"/><feComposite in2="hardAlpha" operator="arithmetic" k2="-1" k3="1"/><feColorMatrix values="0 0 0 0 0.6 0 0 0 0 0.627451 0 0 0 0 0.698039 0 0 0 0.5 0"/><feBlend in2="effect1_innerShadow_145_6023" result="effect2_innerShadow_145_6023"/></filter><linearGradient id="paint0_linear_145_6023" x1="490.375" y1="8" x2="923.28" y2="280.028" gradientUnits="userSpaceOnUse"><stop stop-color="#F0F1F4"/><stop offset="1" stop-color="#D3D6DE"/></linearGradient><linearGradient id="paint1_linear_145_6023" x1="11" y1="88" x2="384.626" y2="469.295" gradientUnits="userSpaceOnUse"><stop stop-color="#F0F1F4"/><stop offset="1" stop-color="#D3D6DE"/></linearGradient></defs></svg>