<svg width="177" height="53" fill="none" xmlns="http://www.w3.org/2000/svg"><g filter="url(#filter0_dd_205_306)"><path d="M39.254 26.733c0 2.127-1.76 3.814-3.887 3.814s-3.886-1.687-3.886-3.814c0-2.126 1.76-3.813 3.886-3.813 2.127 0 3.887 1.687 3.887 3.813z" fill="#1BC837"/></g><g filter="url(#filter1_dd_205_306)"><path d="M27.668 26.733c0 2.127-1.76 3.814-3.887 3.814s-3.886-1.687-3.886-3.814c0-2.126 1.76-3.813 3.886-3.813 2.127 0 3.887 1.687 3.887 3.813z" fill="#1BC837"/></g><g filter="url(#filter2_dd_205_306)"><path d="M12.527 44.993a4 4 0 01-4-4V12.4a4 4 0 014-4h23.537a3.41 3.41 0 110 6.82h-15.91a4 4 0 00-4 4v15.027a4 4 0 004 4h15.947a3.373 3.373 0 010 6.746H12.527z" fill="#1BC837"/></g><g filter="url(#filter3_dd_205_306)"><path d="M62.219 30.462a.25.25 0 01.25.25v2.298a.25.25 0 01-.25.25H54.25a.25.25 0 01-.25-.25V18.857a.25.25 0 01.25-.25h7.825a.25.25 0 01.25.25v2.297a.25.25 0 01-.25.25h-4.524a.25.25 0 00-.25.25v2.564c0 .138.112.25.25.25h3.95a.25.25 0 01.25.25v2.297a.25.25 0 01-.25.25h-3.95a.25.25 0 00-.25.25v2.697c0 .138.112.25.25.25h4.668z" fill="#0B0C0F"/></g><g filter="url(#filter4_dd_205_306)"><path d="M73.128 30.462a.25.25 0 01.25.25v2.298a.25.25 0 01-.25.25H65.59a.25.25 0 01-.25-.25V18.857a.25.25 0 01.25-.25h2.658a.25.25 0 01.25.25v11.355c0 .138.112.25.25.25h4.38z" fill="#0B0C0F"/></g><g filter="url(#filter5_dd_205_306)"><path d="M83.75 30.462a.25.25 0 01.25.25v2.298a.25.25 0 01-.25.25h-7.969a.25.25 0 01-.25-.25V18.857a.25.25 0 01.25-.25h7.682a.25.25 0 01.25.25v2.297a.25.25 0 01-.25.25H78.94a.25.25 0 00-.25.25v2.564c0 .138.112.25.25.25h4.094a.25.25 0 01.25.25v2.297a.25.25 0 01-.25.25H78.94a.25.25 0 00-.25.25v2.697c0 .138.112.25.25.25h4.811z" fill="#0B0C0F"/></g><g filter="url(#filter6_dd_205_306)"><path d="M91.079 28.156a.25.25 0 00-.425-.03l-.578.806a.25.25 0 00-.047.146v3.932a.25.25 0 01-.25.25h-2.658a.25.25 0 01-.25-.25V18.857a.25.25 0 01.25-.25h2.658a.25.25 0 01.25.25v4.353c0 .26.347.348.47.119l.391-.726 2.082-3.865a.25.25 0 01.22-.131h3.131a.25.25 0 01.212.383l-3.699 5.884a.25.25 0 00-.005.257l4.447 7.754a.25.25 0 01-.217.375h-3.149a.25.25 0 01-.221-.134l-2.612-4.97z" fill="#0B0C0F"/></g><g filter="url(#filter7_dd_205_306)"><path d="M107.973 21.154a.25.25 0 01-.25.25h-2.658a.25.25 0 00-.25.25V33.01a.25.25 0 01-.25.25h-2.802a.25.25 0 01-.25-.25V21.654a.25.25 0 00-.25-.25h-2.657a.25.25 0 01-.25-.25v-2.297a.25.25 0 01.25-.25h9.117a.25.25 0 01.25.25v2.297z" fill="#0B0C0F"/></g><g filter="url(#filter8_dd_205_306)"><path d="M113.426 25.284c0 .138.112.25.25.25h1.042c1.149 0 1.723-.666 1.723-1.999 0-1.332-.574-1.998-1.723-1.998h-1.042a.25.25 0 00-.25.25v3.497zm1.218 3.183a.248.248 0 00-.222-.136h-.746a.25.25 0 00-.25.25v4.429a.25.25 0 01-.25.25h-2.801a.25.25 0 01-.25-.25V18.857a.25.25 0 01.25-.25h4.343c3.158 0 5.024 1.865 5.024 4.928 0 1.895-.774 3.311-1.956 4.134a.26.26 0 00-.085.336l2.704 5.02a.25.25 0 01-.22.368h-2.873a.25.25 0 01-.223-.136l-2.445-4.79z" fill="#0B0C0F"/></g><g filter="url(#filter9_dd_205_306)"><path d="M129.358 28.598v-5.196c0-1.332-.574-2.131-1.866-2.131-1.292 0-1.723.666-1.723 2.131v5.195c0 1.333.574 2.132 1.866 2.132 1.292 0 1.723-.8 1.723-2.131zm-7.034 0v-5.196c0-3.197 2.01-5.062 5.168-5.062 3.301 0 5.167 1.865 5.167 5.062v5.195c0 3.197-2.009 5.062-5.167 5.062-3.158-.133-5.168-1.998-5.168-5.061z" fill="#0B0C0F"/></g><g filter="url(#filter10_dd_205_306)"><path d="M134.673 29.247a.242.242 0 01.245-.25h2.801c.138 0 .249.113.259.25.078 1.023.649 1.482 1.714 1.482 1.005 0 1.579-.533 1.579-1.332 0-2.398-6.316-2.664-6.316-7.194 0-2.264 1.723-3.863 4.593-3.863 2.919 0 4.627 1.5 4.732 4.013a.242.242 0 01-.245.25h-2.801a.27.27 0 01-.262-.25c-.073-.777-.512-1.215-1.424-1.215-.861 0-1.292.4-1.292 1.065 0 2.265 6.316 2.398 6.316 7.06 0 2.398-1.866 4.13-5.024 4.13-2.788.13-4.763-1.374-4.875-4.146z" fill="#0B0C0F"/></g><g filter="url(#filter11_dd_205_306)"><path d="M145.806 18.92a.25.25 0 01.241-.313h2.774a.25.25 0 01.244.199l1.394 6.728c.282 1.044.563 2.858.71 4.058a.08.08 0 00.08.071.08.08 0 00.08-.07c.146-1.201.428-3.015.709-4.06l1.395-6.727a.25.25 0 01.244-.2h2.777a.25.25 0 01.242.312l-3.605 14.153a.25.25 0 01-.242.189h-3.058a.25.25 0 01-.242-.186l-3.743-14.153z" fill="#0B0C0F"/></g><g filter="url(#filter12_dd_205_306)"><path d="M161.837 18.607h-2.802a.25.25 0 00-.25.25V33.01c0 .138.112.25.25.25h2.802a.25.25 0 00.25-.25V18.857a.25.25 0 00-.25-.25z" fill="#0B0C0F"/></g><g filter="url(#filter13_dd_205_306)"><path d="M174 21.154a.25.25 0 01-.25.25h-2.658a.25.25 0 00-.25.25V33.01a.25.25 0 01-.25.25h-2.801a.25.25 0 01-.25-.25V21.654a.25.25 0 00-.25-.25h-2.658a.25.25 0 01-.25-.25v-2.297a.25.25 0 01.25-.25h9.117a.25.25 0 01.25.25v2.297z" fill="#0B0C0F"/></g><defs><filter id="filter0_dd_205_306" x="23.48" y="14.92" width="23.773" height="23.627" filterUnits="userSpaceOnUse" color-interpolation-filters="sRGB"><feFlood flood-opacity="0" result="BackgroundImageFix"/><feColorMatrix in="SourceAlpha" values="0 0 0 0 0 0 0 0 0 0 0 0 0 0 0 0 0 0 127 0" result="hardAlpha"/><feMorphology radius="2" operator="dilate" in="SourceAlpha" result="effect1_dropShadow_205_306"/><feOffset dx="-2" dy="-2"/><feGaussianBlur stdDeviation="2"/><feColorMatrix values="0 0 0 0 1 0 0 0 0 1 0 0 0 0 1 0 0 0 0.8 0"/><feBlend in2="BackgroundImageFix" result="effect1_dropShadow_205_306"/><feColorMatrix in="SourceAlpha" values="0 0 0 0 0 0 0 0 0 0 0 0 0 0 0 0 0 0 127 0" result="hardAlpha"/><feMorphology radius="2" operator="dilate" in="SourceAlpha" result="effect2_dropShadow_205_306"/><feOffset dx="2" dy="2"/><feGaussianBlur stdDeviation="2"/><feColorMatrix values="0 0 0 0 0.388235 0 0 0 0 0.423529 0 0 0 0 0.513726 0 0 0 0.6 0"/><feBlend in2="effect1_dropShadow_205_306" result="effect2_dropShadow_205_306"/><feBlend in="SourceGraphic" in2="effect2_dropShadow_205_306" result="shape"/></filter><filter id="filter1_dd_205_306" x="11.895" y="14.92" width="23.773" height="23.627" filterUnits="userSpaceOnUse" color-interpolation-filters="sRGB"><feFlood flood-opacity="0" result="BackgroundImageFix"/><feColorMatrix in="SourceAlpha" values="0 0 0 0 0 0 0 0 0 0 0 0 0 0 0 0 0 0 127 0" result="hardAlpha"/><feMorphology radius="2" operator="dilate" in="SourceAlpha" result="effect1_dropShadow_205_306"/><feOffset dx="-2" dy="-2"/><feGaussianBlur stdDeviation="2"/><feColorMatrix values="0 0 0 0 1 0 0 0 0 1 0 0 0 0 1 0 0 0 0.8 0"/><feBlend in2="BackgroundImageFix" result="effect1_dropShadow_205_306"/><feColorMatrix in="SourceAlpha" values="0 0 0 0 0 0 0 0 0 0 0 0 0 0 0 0 0 0 127 0" result="hardAlpha"/><feMorphology radius="2" operator="dilate" in="SourceAlpha" result="effect2_dropShadow_205_306"/><feOffset dx="2" dy="2"/><feGaussianBlur stdDeviation="2"/><feColorMatrix values="0 0 0 0 0.388235 0 0 0 0 0.423529 0 0 0 0 0.513726 0 0 0 0.6 0"/><feBlend in2="effect1_dropShadow_205_306" result="effect2_dropShadow_205_306"/><feBlend in="SourceGraphic" in2="effect2_dropShadow_205_306" result="shape"/></filter><filter id="filter2_dd_205_306" x=".527" y=".4" width="46.945" height="52.593" filterUnits="userSpaceOnUse" color-interpolation-filters="sRGB"><feFlood flood-opacity="0" result="BackgroundImageFix"/><feColorMatrix in="SourceAlpha" values="0 0 0 0 0 0 0 0 0 0 0 0 0 0 0 0 0 0 127 0" result="hardAlpha"/><feMorphology radius="2" operator="dilate" in="SourceAlpha" result="effect1_dropShadow_205_306"/><feOffset dx="-2" dy="-2"/><feGaussianBlur stdDeviation="2"/><feColorMatrix values="0 0 0 0 1 0 0 0 0 1 0 0 0 0 1 0 0 0 0.8 0"/><feBlend in2="BackgroundImageFix" result="effect1_dropShadow_205_306"/><feColorMatrix in="SourceAlpha" values="0 0 0 0 0 0 0 0 0 0 0 0 0 0 0 0 0 0 127 0" result="hardAlpha"/><feMorphology radius="2" operator="dilate" in="SourceAlpha" result="effect2_dropShadow_205_306"/><feOffset dx="2" dy="2"/><feGaussianBlur stdDeviation="2"/><feColorMatrix values="0 0 0 0 0.388235 0 0 0 0 0.423529 0 0 0 0 0.513726 0 0 0 0.6 0"/><feBlend in2="effect1_dropShadow_205_306" result="effect2_dropShadow_205_306"/><feBlend in="SourceGraphic" in2="effect2_dropShadow_205_306" result="shape"/></filter><filter id="filter3_dd_205_306" x="51" y="15.607" width="14.469" height="20.653" filterUnits="userSpaceOnUse" color-interpolation-filters="sRGB"><feFlood flood-opacity="0" result="BackgroundImageFix"/><feColorMatrix in="SourceAlpha" values="0 0 0 0 0 0 0 0 0 0 0 0 0 0 0 0 0 0 127 0" result="hardAlpha"/><feOffset dx="-1" dy="-1"/><feGaussianBlur stdDeviation="1"/><feColorMatrix values="0 0 0 0 1 0 0 0 0 1 0 0 0 0 1 0 0 0 0.8 0"/><feBlend in2="BackgroundImageFix" result="effect1_dropShadow_205_306"/><feColorMatrix in="SourceAlpha" values="0 0 0 0 0 0 0 0 0 0 0 0 0 0 0 0 0 0 127 0" result="hardAlpha"/><feOffset dx="1" dy="1"/><feGaussianBlur stdDeviation="1"/><feColorMatrix values="0 0 0 0 0.388235 0 0 0 0 0.423529 0 0 0 0 0.513726 0 0 0 0.6 0"/><feBlend in2="effect1_dropShadow_205_306" result="effect2_dropShadow_205_306"/><feBlend in="SourceGraphic" in2="effect2_dropShadow_205_306" result="shape"/></filter><filter id="filter4_dd_205_306" x="62.34" y="15.607" width="14.039" height="20.653" filterUnits="userSpaceOnUse" color-interpolation-filters="sRGB"><feFlood flood-opacity="0" result="BackgroundImageFix"/><feColorMatrix in="SourceAlpha" values="0 0 0 0 0 0 0 0 0 0 0 0 0 0 0 0 0 0 127 0" result="hardAlpha"/><feOffset dx="-1" dy="-1"/><feGaussianBlur stdDeviation="1"/><feColorMatrix values="0 0 0 0 1 0 0 0 0 1 0 0 0 0 1 0 0 0 0.8 0"/><feBlend in2="BackgroundImageFix" result="effect1_dropShadow_205_306"/><feColorMatrix in="SourceAlpha" values="0 0 0 0 0 0 0 0 0 0 0 0 0 0 0 0 0 0 127 0" result="hardAlpha"/><feOffset dx="1" dy="1"/><feGaussianBlur stdDeviation="1"/><feColorMatrix values="0 0 0 0 0.388235 0 0 0 0 0.423529 0 0 0 0 0.513726 0 0 0 0.6 0"/><feBlend in2="effect1_dropShadow_205_306" result="effect2_dropShadow_205_306"/><feBlend in="SourceGraphic" in2="effect2_dropShadow_205_306" result="shape"/></filter><filter id="filter5_dd_205_306" x="72.531" y="15.607" width="14.469" height="20.653" filterUnits="userSpaceOnUse" color-interpolation-filters="sRGB"><feFlood flood-opacity="0" result="BackgroundImageFix"/><feColorMatrix in="SourceAlpha" values="0 0 0 0 0 0 0 0 0 0 0 0 0 0 0 0 0 0 127 0" result="hardAlpha"/><feOffset dx="-1" dy="-1"/><feGaussianBlur stdDeviation="1"/><feColorMatrix values="0 0 0 0 1 0 0 0 0 1 0 0 0 0 1 0 0 0 0.8 0"/><feBlend in2="BackgroundImageFix" result="effect1_dropShadow_205_306"/><feColorMatrix in="SourceAlpha" values="0 0 0 0 0 0 0 0 0 0 0 0 0 0 0 0 0 0 127 0" result="hardAlpha"/><feOffset dx="1" dy="1"/><feGaussianBlur stdDeviation="1"/><feColorMatrix values="0 0 0 0 0.388235 0 0 0 0 0.423529 0 0 0 0 0.513726 0 0 0 0.6 0"/><feBlend in2="effect1_dropShadow_205_306" result="effect2_dropShadow_205_306"/><feBlend in="SourceGraphic" in2="effect2_dropShadow_205_306" result="shape"/></filter><filter id="filter6_dd_205_306" x="83.871" y="15.607" width="16.441" height="20.653" filterUnits="userSpaceOnUse" color-interpolation-filters="sRGB"><feFlood flood-opacity="0" result="BackgroundImageFix"/><feColorMatrix in="SourceAlpha" values="0 0 0 0 0 0 0 0 0 0 0 0 0 0 0 0 0 0 127 0" result="hardAlpha"/><feOffset dx="-1" dy="-1"/><feGaussianBlur stdDeviation="1"/><feColorMatrix values="0 0 0 0 1 0 0 0 0 1 0 0 0 0 1 0 0 0 0.8 0"/><feBlend in2="BackgroundImageFix" result="effect1_dropShadow_205_306"/><feColorMatrix in="SourceAlpha" values="0 0 0 0 0 0 0 0 0 0 0 0 0 0 0 0 0 0 127 0" result="hardAlpha"/><feOffset dx="1" dy="1"/><feGaussianBlur stdDeviation="1"/><feColorMatrix values="0 0 0 0 0.388235 0 0 0 0 0.423529 0 0 0 0 0.513726 0 0 0 0.6 0"/><feBlend in2="effect1_dropShadow_205_306" result="effect2_dropShadow_205_306"/><feBlend in="SourceGraphic" in2="effect2_dropShadow_205_306" result="shape"/></filter><filter id="filter7_dd_205_306" x="95.356" y="15.607" width="15.617" height="20.653" filterUnits="userSpaceOnUse" color-interpolation-filters="sRGB"><feFlood flood-opacity="0" result="BackgroundImageFix"/><feColorMatrix in="SourceAlpha" values="0 0 0 0 0 0 0 0 0 0 0 0 0 0 0 0 0 0 127 0" result="hardAlpha"/><feOffset dx="-1" dy="-1"/><feGaussianBlur stdDeviation="1"/><feColorMatrix values="0 0 0 0 1 0 0 0 0 1 0 0 0 0 1 0 0 0 0.8 0"/><feBlend in2="BackgroundImageFix" result="effect1_dropShadow_205_306"/><feColorMatrix in="SourceAlpha" values="0 0 0 0 0 0 0 0 0 0 0 0 0 0 0 0 0 0 127 0" result="hardAlpha"/><feOffset dx="1" dy="1"/><feGaussianBlur stdDeviation="1"/><feColorMatrix values="0 0 0 0 0.388235 0 0 0 0 0.423529 0 0 0 0 0.513726 0 0 0 0.6 0"/><feBlend in2="effect1_dropShadow_205_306" result="effect2_dropShadow_205_306"/><feBlend in="SourceGraphic" in2="effect2_dropShadow_205_306" result="shape"/></filter><filter id="filter8_dd_205_306" x="107.125" y="15.607" width="16.309" height="20.786" filterUnits="userSpaceOnUse" color-interpolation-filters="sRGB"><feFlood flood-opacity="0" result="BackgroundImageFix"/><feColorMatrix in="SourceAlpha" values="0 0 0 0 0 0 0 0 0 0 0 0 0 0 0 0 0 0 127 0" result="hardAlpha"/><feOffset dx="-1" dy="-1"/><feGaussianBlur stdDeviation="1"/><feColorMatrix values="0 0 0 0 1 0 0 0 0 1 0 0 0 0 1 0 0 0 0.8 0"/><feBlend in2="BackgroundImageFix" result="effect1_dropShadow_205_306"/><feColorMatrix in="SourceAlpha" values="0 0 0 0 0 0 0 0 0 0 0 0 0 0 0 0 0 0 127 0" result="hardAlpha"/><feOffset dx="1" dy="1"/><feGaussianBlur stdDeviation="1"/><feColorMatrix values="0 0 0 0 0.388235 0 0 0 0 0.423529 0 0 0 0 0.513726 0 0 0 0.6 0"/><feBlend in2="effect1_dropShadow_205_306" result="effect2_dropShadow_205_306"/><feBlend in="SourceGraphic" in2="effect2_dropShadow_205_306" result="shape"/></filter><filter id="filter9_dd_205_306" x="119.324" y="15.34" width="16.336" height="21.319" filterUnits="userSpaceOnUse" color-interpolation-filters="sRGB"><feFlood flood-opacity="0" result="BackgroundImageFix"/><feColorMatrix in="SourceAlpha" values="0 0 0 0 0 0 0 0 0 0 0 0 0 0 0 0 0 0 127 0" result="hardAlpha"/><feOffset dx="-1" dy="-1"/><feGaussianBlur stdDeviation="1"/><feColorMatrix values="0 0 0 0 1 0 0 0 0 1 0 0 0 0 1 0 0 0 0.8 0"/><feBlend in2="BackgroundImageFix" result="effect1_dropShadow_205_306"/><feColorMatrix in="SourceAlpha" values="0 0 0 0 0 0 0 0 0 0 0 0 0 0 0 0 0 0 127 0" result="hardAlpha"/><feOffset dx="1" dy="1"/><feGaussianBlur stdDeviation="1"/><feColorMatrix values="0 0 0 0 0.388235 0 0 0 0 0.423529 0 0 0 0 0.513726 0 0 0 0.6 0"/><feBlend in2="effect1_dropShadow_205_306" result="effect2_dropShadow_205_306"/><feBlend in="SourceGraphic" in2="effect2_dropShadow_205_306" result="shape"/></filter><filter id="filter10_dd_205_306" x="131.672" y="15.34" width="15.902" height="21.06" filterUnits="userSpaceOnUse" color-interpolation-filters="sRGB"><feFlood flood-opacity="0" result="BackgroundImageFix"/><feColorMatrix in="SourceAlpha" values="0 0 0 0 0 0 0 0 0 0 0 0 0 0 0 0 0 0 127 0" result="hardAlpha"/><feOffset dx="-1" dy="-1"/><feGaussianBlur stdDeviation="1"/><feColorMatrix values="0 0 0 0 1 0 0 0 0 1 0 0 0 0 1 0 0 0 0.8 0"/><feBlend in2="BackgroundImageFix" result="effect1_dropShadow_205_306"/><feColorMatrix in="SourceAlpha" values="0 0 0 0 0 0 0 0 0 0 0 0 0 0 0 0 0 0 127 0" result="hardAlpha"/><feOffset dx="1" dy="1"/><feGaussianBlur stdDeviation="1"/><feColorMatrix values="0 0 0 0 0.388235 0 0 0 0 0.423529 0 0 0 0 0.513726 0 0 0 0.6 0"/><feBlend in2="effect1_dropShadow_205_306" result="effect2_dropShadow_205_306"/><feBlend in="SourceGraphic" in2="effect2_dropShadow_205_306" result="shape"/></filter><filter id="filter11_dd_205_306" x="142.797" y="15.607" width="16.906" height="20.653" filterUnits="userSpaceOnUse" color-interpolation-filters="sRGB"><feFlood flood-opacity="0" result="BackgroundImageFix"/><feColorMatrix in="SourceAlpha" values="0 0 0 0 0 0 0 0 0 0 0 0 0 0 0 0 0 0 127 0" result="hardAlpha"/><feOffset dx="-1" dy="-1"/><feGaussianBlur stdDeviation="1"/><feColorMatrix values="0 0 0 0 1 0 0 0 0 1 0 0 0 0 1 0 0 0 0.8 0"/><feBlend in2="BackgroundImageFix" result="effect1_dropShadow_205_306"/><feColorMatrix in="SourceAlpha" values="0 0 0 0 0 0 0 0 0 0 0 0 0 0 0 0 0 0 127 0" result="hardAlpha"/><feOffset dx="1" dy="1"/><feGaussianBlur stdDeviation="1"/><feColorMatrix values="0 0 0 0 0.388235 0 0 0 0 0.423529 0 0 0 0 0.513726 0 0 0 0.6 0"/><feBlend in2="effect1_dropShadow_205_306" result="effect2_dropShadow_205_306"/><feBlend in="SourceGraphic" in2="effect2_dropShadow_205_306" result="shape"/></filter><filter id="filter12_dd_205_306" x="155.785" y="15.607" width="9.301" height="20.653" filterUnits="userSpaceOnUse" color-interpolation-filters="sRGB"><feFlood flood-opacity="0" result="BackgroundImageFix"/><feColorMatrix in="SourceAlpha" values="0 0 0 0 0 0 0 0 0 0 0 0 0 0 0 0 0 0 127 0" result="hardAlpha"/><feOffset dx="-1" dy="-1"/><feGaussianBlur stdDeviation="1"/><feColorMatrix values="0 0 0 0 1 0 0 0 0 1 0 0 0 0 1 0 0 0 0.8 0"/><feBlend in2="BackgroundImageFix" result="effect1_dropShadow_205_306"/><feColorMatrix in="SourceAlpha" values="0 0 0 0 0 0 0 0 0 0 0 0 0 0 0 0 0 0 127 0" result="hardAlpha"/><feOffset dx="1" dy="1"/><feGaussianBlur stdDeviation="1"/><feColorMatrix values="0 0 0 0 0.388235 0 0 0 0 0.423529 0 0 0 0 0.513726 0 0 0 0.6 0"/><feBlend in2="effect1_dropShadow_205_306" result="effect2_dropShadow_205_306"/><feBlend in="SourceGraphic" in2="effect2_dropShadow_205_306" result="shape"/></filter><filter id="filter13_dd_205_306" x="161.383" y="15.607" width="15.617" height="20.653" filterUnits="userSpaceOnUse" color-interpolation-filters="sRGB"><feFlood flood-opacity="0" result="BackgroundImageFix"/><feColorMatrix in="SourceAlpha" values="0 0 0 0 0 0 0 0 0 0 0 0 0 0 0 0 0 0 127 0" result="hardAlpha"/><feOffset dx="-1" dy="-1"/><feGaussianBlur stdDeviation="1"/><feColorMatrix values="0 0 0 0 1 0 0 0 0 1 0 0 0 0 1 0 0 0 0.8 0"/><feBlend in2="BackgroundImageFix" result="effect1_dropShadow_205_306"/><feColorMatrix in="SourceAlpha" values="0 0 0 0 0 0 0 0 0 0 0 0 0 0 0 0 0 0 127 0" result="hardAlpha"/><feOffset dx="1" dy="1"/><feGaussianBlur stdDeviation="1"/><feColorMatrix values="0 0 0 0 0.388235 0 0 0 0 0.423529 0 0 0 0 0.513726 0 0 0 0.6 0"/><feBlend in2="effect1_dropShadow_205_306" result="effect2_dropShadow_205_306"/><feBlend in="SourceGraphic" in2="effect2_dropShadow_205_306" result="shape"/></filter></defs></svg>