<svg width="261" height="177" fill="none" xmlns="http://www.w3.org/2000/svg"><g filter="url(#filter0_ddd_124_6005)"><path d="M27.514 155.739a1 1 0 011 1v3.478a1 1 0 01-1 1H13a1 1 0 01-1-1v-26.695a1 1 0 011-1h14.234a1 1 0 011 1V137a1 1 0 01-1 1h-7.796a1 1 0 00-1 1v4a1 1 0 001 1h6.677a1 1 0 011 1v3.478a1 1 0 01-1 1h-6.677a1 1 0 00-1 1v4.261a1 1 0 001 1h8.076z" fill="#2C303A"/></g><g filter="url(#filter1_ddd_124_6005)"><path d="M48.788 155.739a1 1 0 011 1v3.478a1 1 0 01-1 1H35.113a1 1 0 01-1-1v-26.695a1 1 0 011-1h4.158a1 1 0 011 1v21.217a1 1 0 001 1h7.517z" fill="#2C303A"/></g><g filter="url(#filter2_ddd_124_6005)"><path d="M69.499 155.739a1 1 0 011 1v3.478a1 1 0 01-1 1H54.984a1 1 0 01-1-1v-26.695a1 1 0 011-1H68.94a1 1 0 011 1V137a1 1 0 01-1 1h-7.797a1 1 0 00-1 1v4a1 1 0 001 1H68.1a1 1 0 011 1v3.478a1 1 0 01-1 1h-6.957a1 1 0 00-1 1v4.261a1 1 0 001 1H69.5z" fill="#2C303A"/></g><g filter="url(#filter3_ddd_124_6005)"><path d="M84.689 151.962a1 1 0 00-1.7-.118l-.547.765a.998.998 0 00-.186.582v7.026a1 1 0 01-1 1h-4.158a1 1 0 01-1-1v-26.695a1 1 0 011-1h4.157a1 1 0 011 1v6.404c0 .928 1.241 1.24 1.68.422l3.915-7.299a1 1 0 01.882-.527h4.873a1 1 0 01.848 1.53l-6.562 10.485a1 1 0 00-.02 1.026l8.085 14.159a1 1 0 01-.868 1.495h-4.95a1 1 0 01-.886-.536l-4.563-8.719z" fill="#2C303A"/></g><g filter="url(#filter4_ddd_124_6005)"><path d="M117.246 137a1 1 0 01-1 1h-4.158a1 1 0 00-1 1v21.217a1 1 0 01-1 1h-4.438a1 1 0 01-1-1V139a1 1 0 00-1-1h-4.158a1 1 0 01-1-1v-3.478a1 1 0 011-1h16.754a1 1 0 011 1V137z" fill="#2C303A"/></g><g filter="url(#filter5_ddd_124_6005)"><path d="M127.879 145.087a1 1 0 001 1h1.519c2.239 0 3.359-1.304 3.359-3.913s-1.12-3.913-3.359-3.913h-1.519a1 1 0 00-1 1v5.826zm2.517 7.025a1 1 0 00-.891-.547h-.626a1 1 0 00-1 1v7.652a1 1 0 01-1 1h-4.438a1 1 0 01-1-1v-26.695a1 1 0 011-1h7.957c6.158 0 9.797 3.652 9.797 9.652 0 3.5-1.344 6.166-3.431 7.809-.414.327-.574.901-.324 1.366l4.644 8.657a1 1 0 01-.881 1.472h-4.433a.998.998 0 01-.891-.547l-4.483-8.819z" fill="#2C303A"/></g><g filter="url(#filter6_ddd_124_6005)"><path d="M158.95 152.087v-10.174c0-2.609-1.12-4.174-3.639-4.174-2.519 0-3.359 1.304-3.359 4.174v10.174c0 2.609 1.12 4.174 3.639 4.174 2.519 0 3.359-1.565 3.359-4.174zm-13.716 0v-10.174c0-6.261 3.919-9.913 10.077-9.913 6.438 0 10.076 3.652 10.076 9.913v10.174c0 6.261-3.918 9.913-10.076 9.913-6.158-.261-10.077-3.913-10.077-9.913z" fill="#2C303A"/></g><g filter="url(#filter7_ddd_124_6005)"><path d="M169.346 153.869c-.047-.55.406-.999.959-.999h4.437c.553 0 .984.451 1.081.995.292 1.65 1.385 2.396 3.278 2.396 1.96 0 3.079-1.044 3.079-2.609 0-4.695-12.316-5.217-12.316-14.087 0-4.435 3.359-7.565 8.957-7.565 5.493 0 8.786 2.733 9.194 7.349.049.55-.405.999-.957.999h-4.438c-.552 0-.978-.455-1.101-.993-.276-1.207-1.127-1.877-2.698-1.877-1.679 0-2.519.783-2.519 2.087 0 4.435 12.316 4.696 12.316 13.826 0 4.696-3.639 8.087-9.797 8.087-5.264.246-9.043-2.508-9.475-7.609z" fill="#2C303A"/></g><g filter="url(#filter8_ddd_124_6005)"><path d="M191.186 133.777a1 1 0 01.967-1.255h4.325a1 1 0 01.98.798l2.634 12.767c.549 2.047 1.098 5.598 1.383 7.949a.158.158 0 00.313 0c.285-2.351.834-5.902 1.383-7.949l2.634-12.767a1 1 0 01.98-.798h4.338a1 1 0 01.969 1.246l-6.77 26.695a1 1 0 01-.97.754h-5.168a1 1 0 01-.968-.745l-7.03-26.695z" fill="#2C303A"/></g><g filter="url(#filter9_ddd_124_6005)"><path d="M221.77 132.522h-4.438a1 1 0 00-1 1v26.695a1 1 0 001 1h4.438a1 1 0 001-1v-26.695a1 1 0 00-1-1z" fill="#2C303A"/></g><g filter="url(#filter10_ddd_124_6005)"><path d="M245.999 137a1 1 0 01-1 1h-4.157a1 1 0 00-1 1v21.217a1 1 0 01-1 1h-4.438a1 1 0 01-1-1V139a1 1 0 00-1-1h-4.158a1 1 0 01-1-1v-3.478a1 1 0 011-1h16.753a1 1 0 011 1V137z" fill="#2C303A"/></g><g filter="url(#filter11_ddd_124_6005)"><path d="M165 52c0 5.02-4.075 9-9 9s-9-3.98-9-9 4.075-9 9-9 9 3.98 9 9z" fill="#1BC837"/></g><g filter="url(#filter12_ddd_124_6005)"><path d="M139 52c0 5.02-4.075 9-9 9s-9-3.98-9-9 4.075-9 9-9 9 3.98 9 9z" fill="#1BC837"/></g><g filter="url(#filter13_ddd_124_6005)"><path d="M99 92a4 4 0 01-4-4V16a4 4 0 014-4h62a4 4 0 014 4v6.91a4 4 0 01-4 4h-44.749a4 4 0 00-4 4v42.34a4 4 0 004 4H161a4 4 0 014 4V88a4 4 0 01-4 4H99z" fill="#1BC837"/></g><defs><filter id="filter0_ddd_124_6005" x="0" y="120.522" width="43.516" height="55.696" filterUnits="userSpaceOnUse" color-interpolation-filters="sRGB"><feFlood flood-opacity="0" result="BackgroundImageFix"/><feColorMatrix in="SourceAlpha" values="0 0 0 0 0 0 0 0 0 0 0 0 0 0 0 0 0 0 127 0" result="hardAlpha"/><feOffset dx="-2" dy="-2"/><feGaussianBlur stdDeviation="5"/><feColorMatrix values="0 0 0 0 1 0 0 0 0 1 0 0 0 0 1 0 0 0 1 0"/><feBlend in2="BackgroundImageFix" result="effect1_dropShadow_124_6005"/><feColorMatrix in="SourceAlpha" values="0 0 0 0 0 0 0 0 0 0 0 0 0 0 0 0 0 0 127 0" result="hardAlpha"/><feOffset dx="5" dy="5"/><feGaussianBlur stdDeviation="5"/><feColorMatrix values="0 0 0 0 0.6 0 0 0 0 0.627451 0 0 0 0 0.698039 0 0 0 0.6 0"/><feBlend in2="effect1_dropShadow_124_6005" result="effect2_dropShadow_124_6005"/><feColorMatrix in="SourceAlpha" values="0 0 0 0 0 0 0 0 0 0 0 0 0 0 0 0 0 0 127 0" result="hardAlpha"/><feOffset dx="-2" dy="-2"/><feGaussianBlur stdDeviation="2.5"/><feColorMatrix values="0 0 0 0 1 0 0 0 0 1 0 0 0 0 1 0 0 0 0.8 0"/><feBlend in2="effect2_dropShadow_124_6005" result="effect3_dropShadow_124_6005"/><feBlend in="SourceGraphic" in2="effect3_dropShadow_124_6005" result="shape"/></filter><filter id="filter1_ddd_124_6005" x="22.113" y="120.522" width="42.676" height="55.696" filterUnits="userSpaceOnUse" color-interpolation-filters="sRGB"><feFlood flood-opacity="0" result="BackgroundImageFix"/><feColorMatrix in="SourceAlpha" values="0 0 0 0 0 0 0 0 0 0 0 0 0 0 0 0 0 0 127 0" result="hardAlpha"/><feOffset dx="-2" dy="-2"/><feGaussianBlur stdDeviation="5"/><feColorMatrix values="0 0 0 0 1 0 0 0 0 1 0 0 0 0 1 0 0 0 1 0"/><feBlend in2="BackgroundImageFix" result="effect1_dropShadow_124_6005"/><feColorMatrix in="SourceAlpha" values="0 0 0 0 0 0 0 0 0 0 0 0 0 0 0 0 0 0 127 0" result="hardAlpha"/><feOffset dx="5" dy="5"/><feGaussianBlur stdDeviation="5"/><feColorMatrix values="0 0 0 0 0.6 0 0 0 0 0.627451 0 0 0 0 0.698039 0 0 0 0.6 0"/><feBlend in2="effect1_dropShadow_124_6005" result="effect2_dropShadow_124_6005"/><feColorMatrix in="SourceAlpha" values="0 0 0 0 0 0 0 0 0 0 0 0 0 0 0 0 0 0 127 0" result="hardAlpha"/><feOffset dx="-2" dy="-2"/><feGaussianBlur stdDeviation="2.5"/><feColorMatrix values="0 0 0 0 1 0 0 0 0 1 0 0 0 0 1 0 0 0 0.8 0"/><feBlend in2="effect2_dropShadow_124_6005" result="effect3_dropShadow_124_6005"/><feBlend in="SourceGraphic" in2="effect3_dropShadow_124_6005" result="shape"/></filter><filter id="filter2_ddd_124_6005" x="41.984" y="120.522" width="43.516" height="55.696" filterUnits="userSpaceOnUse" color-interpolation-filters="sRGB"><feFlood flood-opacity="0" result="BackgroundImageFix"/><feColorMatrix in="SourceAlpha" values="0 0 0 0 0 0 0 0 0 0 0 0 0 0 0 0 0 0 127 0" result="hardAlpha"/><feOffset dx="-2" dy="-2"/><feGaussianBlur stdDeviation="5"/><feColorMatrix values="0 0 0 0 1 0 0 0 0 1 0 0 0 0 1 0 0 0 1 0"/><feBlend in2="BackgroundImageFix" result="effect1_dropShadow_124_6005"/><feColorMatrix in="SourceAlpha" values="0 0 0 0 0 0 0 0 0 0 0 0 0 0 0 0 0 0 127 0" result="hardAlpha"/><feOffset dx="5" dy="5"/><feGaussianBlur stdDeviation="5"/><feColorMatrix values="0 0 0 0 0.6 0 0 0 0 0.627451 0 0 0 0 0.698039 0 0 0 0.6 0"/><feBlend in2="effect1_dropShadow_124_6005" result="effect2_dropShadow_124_6005"/><feColorMatrix in="SourceAlpha" values="0 0 0 0 0 0 0 0 0 0 0 0 0 0 0 0 0 0 127 0" result="hardAlpha"/><feOffset dx="-2" dy="-2"/><feGaussianBlur stdDeviation="2.5"/><feColorMatrix values="0 0 0 0 1 0 0 0 0 1 0 0 0 0 1 0 0 0 0.8 0"/><feBlend in2="effect2_dropShadow_124_6005" result="effect3_dropShadow_124_6005"/><feBlend in="SourceGraphic" in2="effect3_dropShadow_124_6005" result="shape"/></filter><filter id="filter3_ddd_124_6005" x="64.098" y="120.522" width="46.992" height="55.696" filterUnits="userSpaceOnUse" color-interpolation-filters="sRGB"><feFlood flood-opacity="0" result="BackgroundImageFix"/><feColorMatrix in="SourceAlpha" values="0 0 0 0 0 0 0 0 0 0 0 0 0 0 0 0 0 0 127 0" result="hardAlpha"/><feOffset dx="-2" dy="-2"/><feGaussianBlur stdDeviation="5"/><feColorMatrix values="0 0 0 0 1 0 0 0 0 1 0 0 0 0 1 0 0 0 1 0"/><feBlend in2="BackgroundImageFix" result="effect1_dropShadow_124_6005"/><feColorMatrix in="SourceAlpha" values="0 0 0 0 0 0 0 0 0 0 0 0 0 0 0 0 0 0 127 0" result="hardAlpha"/><feOffset dx="5" dy="5"/><feGaussianBlur stdDeviation="5"/><feColorMatrix values="0 0 0 0 0.6 0 0 0 0 0.627451 0 0 0 0 0.698039 0 0 0 0.6 0"/><feBlend in2="effect1_dropShadow_124_6005" result="effect2_dropShadow_124_6005"/><feColorMatrix in="SourceAlpha" values="0 0 0 0 0 0 0 0 0 0 0 0 0 0 0 0 0 0 127 0" result="hardAlpha"/><feOffset dx="-2" dy="-2"/><feGaussianBlur stdDeviation="2.5"/><feColorMatrix values="0 0 0 0 1 0 0 0 0 1 0 0 0 0 1 0 0 0 0.8 0"/><feBlend in2="effect2_dropShadow_124_6005" result="effect3_dropShadow_124_6005"/><feBlend in="SourceGraphic" in2="effect3_dropShadow_124_6005" result="shape"/></filter><filter id="filter4_ddd_124_6005" x="86.492" y="120.522" width="45.754" height="55.696" filterUnits="userSpaceOnUse" color-interpolation-filters="sRGB"><feFlood flood-opacity="0" result="BackgroundImageFix"/><feColorMatrix in="SourceAlpha" values="0 0 0 0 0 0 0 0 0 0 0 0 0 0 0 0 0 0 127 0" result="hardAlpha"/><feOffset dx="-2" dy="-2"/><feGaussianBlur stdDeviation="5"/><feColorMatrix values="0 0 0 0 1 0 0 0 0 1 0 0 0 0 1 0 0 0 1 0"/><feBlend in2="BackgroundImageFix" result="effect1_dropShadow_124_6005"/><feColorMatrix in="SourceAlpha" values="0 0 0 0 0 0 0 0 0 0 0 0 0 0 0 0 0 0 127 0" result="hardAlpha"/><feOffset dx="5" dy="5"/><feGaussianBlur stdDeviation="5"/><feColorMatrix values="0 0 0 0 0.6 0 0 0 0 0.627451 0 0 0 0 0.698039 0 0 0 0.6 0"/><feBlend in2="effect1_dropShadow_124_6005" result="effect2_dropShadow_124_6005"/><feColorMatrix in="SourceAlpha" values="0 0 0 0 0 0 0 0 0 0 0 0 0 0 0 0 0 0 127 0" result="hardAlpha"/><feOffset dx="-2" dy="-2"/><feGaussianBlur stdDeviation="2.5"/><feColorMatrix values="0 0 0 0 1 0 0 0 0 1 0 0 0 0 1 0 0 0 0.8 0"/><feBlend in2="effect2_dropShadow_124_6005" result="effect3_dropShadow_124_6005"/><feBlend in="SourceGraphic" in2="effect3_dropShadow_124_6005" result="shape"/></filter><filter id="filter5_ddd_124_6005" x="109.441" y="120.522" width="46.762" height="55.956" filterUnits="userSpaceOnUse" color-interpolation-filters="sRGB"><feFlood flood-opacity="0" result="BackgroundImageFix"/><feColorMatrix in="SourceAlpha" values="0 0 0 0 0 0 0 0 0 0 0 0 0 0 0 0 0 0 127 0" result="hardAlpha"/><feOffset dx="-2" dy="-2"/><feGaussianBlur stdDeviation="5"/><feColorMatrix values="0 0 0 0 1 0 0 0 0 1 0 0 0 0 1 0 0 0 1 0"/><feBlend in2="BackgroundImageFix" result="effect1_dropShadow_124_6005"/><feColorMatrix in="SourceAlpha" values="0 0 0 0 0 0 0 0 0 0 0 0 0 0 0 0 0 0 127 0" result="hardAlpha"/><feOffset dx="5" dy="5"/><feGaussianBlur stdDeviation="5"/><feColorMatrix values="0 0 0 0 0.6 0 0 0 0 0.627451 0 0 0 0 0.698039 0 0 0 0.6 0"/><feBlend in2="effect1_dropShadow_124_6005" result="effect2_dropShadow_124_6005"/><feColorMatrix in="SourceAlpha" values="0 0 0 0 0 0 0 0 0 0 0 0 0 0 0 0 0 0 127 0" result="hardAlpha"/><feOffset dx="-2" dy="-2"/><feGaussianBlur stdDeviation="2.5"/><feColorMatrix values="0 0 0 0 1 0 0 0 0 1 0 0 0 0 1 0 0 0 0.8 0"/><feBlend in2="effect2_dropShadow_124_6005" result="effect3_dropShadow_124_6005"/><feBlend in="SourceGraphic" in2="effect3_dropShadow_124_6005" result="shape"/></filter><filter id="filter6_ddd_124_6005" x="133.234" y="120" width="47.152" height="57" filterUnits="userSpaceOnUse" color-interpolation-filters="sRGB"><feFlood flood-opacity="0" result="BackgroundImageFix"/><feColorMatrix in="SourceAlpha" values="0 0 0 0 0 0 0 0 0 0 0 0 0 0 0 0 0 0 127 0" result="hardAlpha"/><feOffset dx="-2" dy="-2"/><feGaussianBlur stdDeviation="5"/><feColorMatrix values="0 0 0 0 1 0 0 0 0 1 0 0 0 0 1 0 0 0 1 0"/><feBlend in2="BackgroundImageFix" result="effect1_dropShadow_124_6005"/><feColorMatrix in="SourceAlpha" values="0 0 0 0 0 0 0 0 0 0 0 0 0 0 0 0 0 0 127 0" result="hardAlpha"/><feOffset dx="5" dy="5"/><feGaussianBlur stdDeviation="5"/><feColorMatrix values="0 0 0 0 0.6 0 0 0 0 0.627451 0 0 0 0 0.698039 0 0 0 0.6 0"/><feBlend in2="effect1_dropShadow_124_6005" result="effect2_dropShadow_124_6005"/><feColorMatrix in="SourceAlpha" values="0 0 0 0 0 0 0 0 0 0 0 0 0 0 0 0 0 0 127 0" result="hardAlpha"/><feOffset dx="-2" dy="-2"/><feGaussianBlur stdDeviation="2.5"/><feColorMatrix values="0 0 0 0 1 0 0 0 0 1 0 0 0 0 1 0 0 0 0.8 0"/><feBlend in2="effect2_dropShadow_124_6005" result="effect3_dropShadow_124_6005"/><feBlend in="SourceGraphic" in2="effect3_dropShadow_124_6005" result="shape"/></filter><filter id="filter7_ddd_124_6005" x="157.344" y="120" width="46.273" height="56.493" filterUnits="userSpaceOnUse" color-interpolation-filters="sRGB"><feFlood flood-opacity="0" result="BackgroundImageFix"/><feColorMatrix in="SourceAlpha" values="0 0 0 0 0 0 0 0 0 0 0 0 0 0 0 0 0 0 127 0" result="hardAlpha"/><feOffset dx="-2" dy="-2"/><feGaussianBlur stdDeviation="5"/><feColorMatrix values="0 0 0 0 1 0 0 0 0 1 0 0 0 0 1 0 0 0 1 0"/><feBlend in2="BackgroundImageFix" result="effect1_dropShadow_124_6005"/><feColorMatrix in="SourceAlpha" values="0 0 0 0 0 0 0 0 0 0 0 0 0 0 0 0 0 0 127 0" result="hardAlpha"/><feOffset dx="5" dy="5"/><feGaussianBlur stdDeviation="5"/><feColorMatrix values="0 0 0 0 0.6 0 0 0 0 0.627451 0 0 0 0 0.698039 0 0 0 0.6 0"/><feBlend in2="effect1_dropShadow_124_6005" result="effect2_dropShadow_124_6005"/><feColorMatrix in="SourceAlpha" values="0 0 0 0 0 0 0 0 0 0 0 0 0 0 0 0 0 0 127 0" result="hardAlpha"/><feOffset dx="-2" dy="-2"/><feGaussianBlur stdDeviation="2.5"/><feColorMatrix values="0 0 0 0 1 0 0 0 0 1 0 0 0 0 1 0 0 0 0.8 0"/><feBlend in2="effect2_dropShadow_124_6005" result="effect3_dropShadow_124_6005"/><feBlend in="SourceGraphic" in2="effect3_dropShadow_124_6005" result="shape"/></filter><filter id="filter8_ddd_124_6005" x="179.152" y="120.522" width="47.969" height="55.696" filterUnits="userSpaceOnUse" color-interpolation-filters="sRGB"><feFlood flood-opacity="0" result="BackgroundImageFix"/><feColorMatrix in="SourceAlpha" values="0 0 0 0 0 0 0 0 0 0 0 0 0 0 0 0 0 0 127 0" result="hardAlpha"/><feOffset dx="-2" dy="-2"/><feGaussianBlur stdDeviation="5"/><feColorMatrix values="0 0 0 0 1 0 0 0 0 1 0 0 0 0 1 0 0 0 1 0"/><feBlend in2="BackgroundImageFix" result="effect1_dropShadow_124_6005"/><feColorMatrix in="SourceAlpha" values="0 0 0 0 0 0 0 0 0 0 0 0 0 0 0 0 0 0 127 0" result="hardAlpha"/><feOffset dx="5" dy="5"/><feGaussianBlur stdDeviation="5"/><feColorMatrix values="0 0 0 0 0.6 0 0 0 0 0.627451 0 0 0 0 0.698039 0 0 0 0.6 0"/><feBlend in2="effect1_dropShadow_124_6005" result="effect2_dropShadow_124_6005"/><feColorMatrix in="SourceAlpha" values="0 0 0 0 0 0 0 0 0 0 0 0 0 0 0 0 0 0 127 0" result="hardAlpha"/><feOffset dx="-2" dy="-2"/><feGaussianBlur stdDeviation="2.5"/><feColorMatrix values="0 0 0 0 1 0 0 0 0 1 0 0 0 0 1 0 0 0 0.8 0"/><feBlend in2="effect2_dropShadow_124_6005" result="effect3_dropShadow_124_6005"/><feBlend in="SourceGraphic" in2="effect3_dropShadow_124_6005" result="shape"/></filter><filter id="filter9_ddd_124_6005" x="204.332" y="120.522" width="33.438" height="55.696" filterUnits="userSpaceOnUse" color-interpolation-filters="sRGB"><feFlood flood-opacity="0" result="BackgroundImageFix"/><feColorMatrix in="SourceAlpha" values="0 0 0 0 0 0 0 0 0 0 0 0 0 0 0 0 0 0 127 0" result="hardAlpha"/><feOffset dx="-2" dy="-2"/><feGaussianBlur stdDeviation="5"/><feColorMatrix values="0 0 0 0 1 0 0 0 0 1 0 0 0 0 1 0 0 0 1 0"/><feBlend in2="BackgroundImageFix" result="effect1_dropShadow_124_6005"/><feColorMatrix in="SourceAlpha" values="0 0 0 0 0 0 0 0 0 0 0 0 0 0 0 0 0 0 127 0" result="hardAlpha"/><feOffset dx="5" dy="5"/><feGaussianBlur stdDeviation="5"/><feColorMatrix values="0 0 0 0 0.6 0 0 0 0 0.627451 0 0 0 0 0.698039 0 0 0 0.6 0"/><feBlend in2="effect1_dropShadow_124_6005" result="effect2_dropShadow_124_6005"/><feColorMatrix in="SourceAlpha" values="0 0 0 0 0 0 0 0 0 0 0 0 0 0 0 0 0 0 127 0" result="hardAlpha"/><feOffset dx="-2" dy="-2"/><feGaussianBlur stdDeviation="2.5"/><feColorMatrix values="0 0 0 0 1 0 0 0 0 1 0 0 0 0 1 0 0 0 0.8 0"/><feBlend in2="effect2_dropShadow_124_6005" result="effect3_dropShadow_124_6005"/><feBlend in="SourceGraphic" in2="effect3_dropShadow_124_6005" result="shape"/></filter><filter id="filter10_ddd_124_6005" x="215.246" y="120.522" width="45.754" height="55.696" filterUnits="userSpaceOnUse" color-interpolation-filters="sRGB"><feFlood flood-opacity="0" result="BackgroundImageFix"/><feColorMatrix in="SourceAlpha" values="0 0 0 0 0 0 0 0 0 0 0 0 0 0 0 0 0 0 127 0" result="hardAlpha"/><feOffset dx="-2" dy="-2"/><feGaussianBlur stdDeviation="5"/><feColorMatrix values="0 0 0 0 1 0 0 0 0 1 0 0 0 0 1 0 0 0 1 0"/><feBlend in2="BackgroundImageFix" result="effect1_dropShadow_124_6005"/><feColorMatrix in="SourceAlpha" values="0 0 0 0 0 0 0 0 0 0 0 0 0 0 0 0 0 0 127 0" result="hardAlpha"/><feOffset dx="5" dy="5"/><feGaussianBlur stdDeviation="5"/><feColorMatrix values="0 0 0 0 0.6 0 0 0 0 0.627451 0 0 0 0 0.698039 0 0 0 0.6 0"/><feBlend in2="effect1_dropShadow_124_6005" result="effect2_dropShadow_124_6005"/><feColorMatrix in="SourceAlpha" values="0 0 0 0 0 0 0 0 0 0 0 0 0 0 0 0 0 0 127 0" result="hardAlpha"/><feOffset dx="-2" dy="-2"/><feGaussianBlur stdDeviation="2.5"/><feColorMatrix values="0 0 0 0 1 0 0 0 0 1 0 0 0 0 1 0 0 0 0.8 0"/><feBlend in2="effect2_dropShadow_124_6005" result="effect3_dropShadow_124_6005"/><feBlend in="SourceGraphic" in2="effect3_dropShadow_124_6005" result="shape"/></filter><filter id="filter11_ddd_124_6005" x="135" y="31" width="45" height="45" filterUnits="userSpaceOnUse" color-interpolation-filters="sRGB"><feFlood flood-opacity="0" result="BackgroundImageFix"/><feColorMatrix in="SourceAlpha" values="0 0 0 0 0 0 0 0 0 0 0 0 0 0 0 0 0 0 127 0" result="hardAlpha"/><feOffset dx="-2" dy="-2"/><feGaussianBlur stdDeviation="5"/><feColorMatrix values="0 0 0 0 1 0 0 0 0 1 0 0 0 0 1 0 0 0 1 0"/><feBlend in2="BackgroundImageFix" result="effect1_dropShadow_124_6005"/><feColorMatrix in="SourceAlpha" values="0 0 0 0 0 0 0 0 0 0 0 0 0 0 0 0 0 0 127 0" result="hardAlpha"/><feOffset dx="5" dy="5"/><feGaussianBlur stdDeviation="5"/><feColorMatrix values="0 0 0 0 0.6 0 0 0 0 0.627451 0 0 0 0 0.698039 0 0 0 0.6 0"/><feBlend in2="effect1_dropShadow_124_6005" result="effect2_dropShadow_124_6005"/><feColorMatrix in="SourceAlpha" values="0 0 0 0 0 0 0 0 0 0 0 0 0 0 0 0 0 0 127 0" result="hardAlpha"/><feOffset dx="-2" dy="-2"/><feGaussianBlur stdDeviation="2.5"/><feColorMatrix values="0 0 0 0 1 0 0 0 0 1 0 0 0 0 1 0 0 0 0.8 0"/><feBlend in2="effect2_dropShadow_124_6005" result="effect3_dropShadow_124_6005"/><feBlend in="SourceGraphic" in2="effect3_dropShadow_124_6005" result="shape"/></filter><filter id="filter12_ddd_124_6005" x="109" y="31" width="45" height="45" filterUnits="userSpaceOnUse" color-interpolation-filters="sRGB"><feFlood flood-opacity="0" result="BackgroundImageFix"/><feColorMatrix in="SourceAlpha" values="0 0 0 0 0 0 0 0 0 0 0 0 0 0 0 0 0 0 127 0" result="hardAlpha"/><feOffset dx="-2" dy="-2"/><feGaussianBlur stdDeviation="5"/><feColorMatrix values="0 0 0 0 1 0 0 0 0 1 0 0 0 0 1 0 0 0 1 0"/><feBlend in2="BackgroundImageFix" result="effect1_dropShadow_124_6005"/><feColorMatrix in="SourceAlpha" values="0 0 0 0 0 0 0 0 0 0 0 0 0 0 0 0 0 0 127 0" result="hardAlpha"/><feOffset dx="5" dy="5"/><feGaussianBlur stdDeviation="5"/><feColorMatrix values="0 0 0 0 0.6 0 0 0 0 0.627451 0 0 0 0 0.698039 0 0 0 0.6 0"/><feBlend in2="effect1_dropShadow_124_6005" result="effect2_dropShadow_124_6005"/><feColorMatrix in="SourceAlpha" values="0 0 0 0 0 0 0 0 0 0 0 0 0 0 0 0 0 0 127 0" result="hardAlpha"/><feOffset dx="-2" dy="-2"/><feGaussianBlur stdDeviation="2.5"/><feColorMatrix values="0 0 0 0 1 0 0 0 0 1 0 0 0 0 1 0 0 0 0.8 0"/><feBlend in2="effect2_dropShadow_124_6005" result="effect3_dropShadow_124_6005"/><feBlend in="SourceGraphic" in2="effect3_dropShadow_124_6005" result="shape"/></filter><filter id="filter13_ddd_124_6005" x="83" y="0" width="97" height="107" filterUnits="userSpaceOnUse" color-interpolation-filters="sRGB"><feFlood flood-opacity="0" result="BackgroundImageFix"/><feColorMatrix in="SourceAlpha" values="0 0 0 0 0 0 0 0 0 0 0 0 0 0 0 0 0 0 127 0" result="hardAlpha"/><feOffset dx="-2" dy="-2"/><feGaussianBlur stdDeviation="5"/><feColorMatrix values="0 0 0 0 1 0 0 0 0 1 0 0 0 0 1 0 0 0 1 0"/><feBlend in2="BackgroundImageFix" result="effect1_dropShadow_124_6005"/><feColorMatrix in="SourceAlpha" values="0 0 0 0 0 0 0 0 0 0 0 0 0 0 0 0 0 0 127 0" result="hardAlpha"/><feOffset dx="5" dy="5"/><feGaussianBlur stdDeviation="5"/><feColorMatrix values="0 0 0 0 0.6 0 0 0 0 0.627451 0 0 0 0 0.698039 0 0 0 0.6 0"/><feBlend in2="effect1_dropShadow_124_6005" result="effect2_dropShadow_124_6005"/><feColorMatrix in="SourceAlpha" values="0 0 0 0 0 0 0 0 0 0 0 0 0 0 0 0 0 0 127 0" result="hardAlpha"/><feOffset dx="-2" dy="-2"/><feGaussianBlur stdDeviation="2.5"/><feColorMatrix values="0 0 0 0 1 0 0 0 0 1 0 0 0 0 1 0 0 0 0.8 0"/><feBlend in2="effect2_dropShadow_124_6005" result="effect3_dropShadow_124_6005"/><feBlend in="SourceGraphic" in2="effect3_dropShadow_124_6005" result="shape"/></filter></defs></svg>