<svg width="1270" height="152" fill="none" xmlns="http://www.w3.org/2000/svg"><path fill-rule="evenodd" clip-rule="evenodd" d="M0 8.4a4 4 0 014-4h87.8a4 4 0 014 4v16.8a4 4 0 01-4 4H31.2a4 4 0 00-4 4V58a4 4 0 004 4h57a4 4 0 014 4v16.8a4 4 0 01-4 4h-57a4 4 0 00-4 4v28.4a4 4 0 004 4h64.2a4 4 0 014 4V144a4 4 0 01-4 4H4a4 4 0 01-4-4V8.4zm30.2 115.8a4 4 0 01-4-4V89.8a4 4 0 014-4h57a4 4 0 004-4V67a4 4 0 00-4-4h-57a4 4 0 01-4-4V32.2a4 4 0 014-4h60.6a4 4 0 004-4V9.4a4 4 0 00-4-4H5a4 4 0 00-4 4V143a4 4 0 004 4h89.4a4 4 0 004-4v-14.8a4 4 0 00-4-4H30.2zM122.266 8.4a4 4 0 014-4h19.2a4 4 0 014 4v110.8a4 4 0 004 4h52.2a4 4 0 014 4V144a4 4 0 01-4 4h-79.4a4 4 0 01-4-4V8.4zm30.2 115.8a4 4 0 01-4-4V9.4a4 4 0 00-4-4h-17.2a4 4 0 00-4 4V143a4 4 0 004 4h77.4a4 4 0 004-4v-14.8a4 4 0 00-4-4h-52.2zM225.977 8.4a4 4 0 014-4h87.8a4 4 0 014 4v16.8a4 4 0 01-4 4h-60.6a4 4 0 00-4 4V58a4 4 0 004 4h57a4 4 0 014 4v16.8a4 4 0 01-4 4h-57a4 4 0 00-4 4v28.4a4 4 0 004 4h64.2a4 4 0 014 4V144a4 4 0 01-4 4h-91.4a4 4 0 01-4-4V8.4zm30.2 115.8a4 4 0 01-4-4V89.8a4 4 0 014-4h57a4 4 0 004-4V67a4 4 0 00-4-4h-57a4 4 0 01-4-4V32.2a4 4 0 014-4h60.6a4 4 0 004-4V9.4a4 4 0 00-4-4h-85.8a4 4 0 00-4 4V143a4 4 0 004 4h89.4a4 4 0 004-4v-14.8a4 4 0 00-4-4h-64.2zM348.242 8.4a4 4 0 014-4h19.2a4 4 0 014 4v55.774l57.202-58.569a4 4 0 012.862-1.205h25.431c3.575 0 5.355 4.333 2.811 6.846L406.19 68.108a4 4 0 00-.123 5.564l62.64 67.609c2.372 2.561.557 6.719-2.934 6.719h-27.177a3.997 3.997 0 01-2.999-1.354l-60.155-68.188V144a4 4 0 01-4 4h-19.2a4 4 0 01-4-4V8.4zm27.165 69c.277 0 .54.119.723.326l59.918 67.92a4 4 0 003 1.354h33.594l-67.967-73.358a4 4 0 01.123-5.564L468.242 5.4h-32.315a4.002 4.002 0 00-2.862 1.205l-57.174 58.54a.845.845 0 01-1.449-.59V9.4a4 4 0 00-4-4h-17.2a4 4 0 00-4 4V143a4 4 0 004 4h17.2a4 4 0 004-4V78.365c0-.533.432-.965.965-.965zm99.349-48.2a4 4 0 01-4-4V8.4a4 4 0 014-4h106a4 4 0 014 4v16.8a4 4 0 01-4 4h-35.4a4 4 0 00-4 4V144a4 4 0 01-4 4h-19.2a4 4 0 01-4-4V33.2a4 4 0 00-4-4h-35.4zm36.4-1a4 4 0 014 4V143a4 4 0 004 4h17.2a4 4 0 004-4V32.2a4 4 0 014-4h35.4a4 4 0 004-4V9.4a4 4 0 00-4-4h-104a4 4 0 00-4 4v14.8a4 4 0 004 4h35.4zM600 8.4a4 4 0 014-4h46.2c6.861 0 13.461.672 19.796 2.02 6.502 1.22 12.284 3.393 17.332 6.53 5.08 3.159 9.13 7.417 12.143 12.759C702.513 31.1 704 37.884 704 46c0 10.462-2.925 19.295-8.825 26.431-4.419 5.47-10.31 9.27-17.625 11.427-2.706.797-4.153 3.923-2.7 6.341l31.078 51.741c1.601 2.666-.319 6.06-3.429 6.06h-23.32a4.002 4.002 0 01-3.51-2.081l-30.524-55.838a4.001 4.001 0 00-3.51-2.081H631.2a4 4 0 00-4 4v52a4 4 0 01-4 4H604a4 4 0 01-4-4V8.4zM626.2 91a4 4 0 014-4h12.028c1.462 0 2.808.798 3.51 2.081l30.524 55.838a4.002 4.002 0 003.51 2.081h20.959c3.11 0 5.031-3.394 3.429-6.06l-33.403-55.612a.727.727 0 01.514-1.088c10.01-1.597 17.72-5.743 23.129-12.44 5.733-6.933 8.6-15.533 8.6-25.8 0-8-1.467-14.6-4.4-19.8-2.933-5.2-6.867-9.333-11.8-12.4-4.933-3.067-10.6-5.2-17-6.4-6.267-1.333-12.8-2-19.6-2H605a4 4 0 00-4 4V143a4 4 0 004 4h17.2a4 4 0 004-4V91zm40.588-59.889l-.018-.008c-2.689-1.28-5.714-2.12-9.085-2.51h-.004A81.23 81.23 0 00648 28h-16.8a4 4 0 00-4 4v28.4a4 4 0 004 4h14.6c3.569 0 7.138-.132 10.708-.396 3.509-.391 6.674-1.17 9.503-2.326 2.907-1.265 5.224-3.087 6.977-5.462 1.703-2.44 2.612-5.876 2.612-10.416 0-4-.839-7.117-2.425-9.435-1.627-2.378-3.745-4.121-6.369-5.246l-.018-.008zM673.8 56.8c-1.867 2.533-4.333 4.467-7.4 5.8-2.933 1.2-6.2 2-9.8 2.4-3.6.267-7.2.4-10.8.4h-15.6a4 4 0 01-4-4V31a4 4 0 014-4H648a81 81 0 017.755.379m83.914-5.886l.008-.007c6.767-6.633 14.751-11.705 23.939-15.219C772.941 2.62 783.13.801 794.171.8c11.171-.134 21.425 1.548 30.753 5.062 9.325 3.38 17.38 8.387 24.153 15.024 6.77 6.635 12.045 14.62 15.826 23.938 3.788 9.335 5.674 19.732 5.674 31.176 0 11.18-1.887 21.379-5.676 30.581-3.782 9.185-9.056 17.1-15.824 23.733-6.766 6.63-14.811 11.833-24.124 15.613l-.012.004c-9.325 3.649-19.579 5.534-30.752 5.669h-.012c-11.041 0-21.228-1.751-30.553-5.264l-.008-.003-.008-.004c-9.181-3.645-17.159-8.713-23.924-15.208l-.007-.007-.008-.007c-6.632-6.632-11.837-14.545-15.617-23.726-3.789-9.202-5.675-19.4-5.675-30.581 0-11.442 1.884-21.837 5.671-31.171 3.779-9.448 8.984-17.499 15.621-24.136zM724.977 46c-3.734 9.2-5.6 19.467-5.6 30.8 0 11.067 1.866 21.133 5.6 30.2 3.733 9.067 8.866 16.867 15.4 23.4 6.666 6.4 14.533 11.4 23.6 15 9.2 3.467 19.266 5.2 30.2 5.2 11.066-.133 21.2-2 30.4-5.6 9.2-3.733 17.133-8.867 23.8-15.4 6.666-6.533 11.866-14.333 15.6-23.4 3.733-9.067 5.6-19.133 5.6-30.2 0-11.333-1.867-21.6-5.6-30.8-3.734-9.2-8.934-17.067-15.6-23.6-6.667-6.533-14.6-11.467-23.8-14.8-9.2-3.467-19.334-5.133-30.4-5-10.934 0-21 1.8-30.2 5.4-9.067 3.467-16.934 8.467-23.6 15-6.534 6.533-11.667 14.467-15.4 23.8zm104.066-5.92l-.004-.005c-4.167-4.557-9.18-8.075-15.051-10.554l-.009-.003-.009-.004c-5.858-2.604-12.384-3.914-19.593-3.914-7.21 0-13.736 1.31-19.594 3.914l-.01.004c-5.738 2.478-10.688 5.996-14.858 10.557l-.005.005-.005.005c-4.173 4.434-7.438 9.654-9.794 15.672-2.22 6.011-3.334 12.49-3.334 19.443 0 7.496 1.117 14.379 3.339 20.657 2.358 6.287 5.627 11.705 9.799 16.268 4.173 4.565 9.128 8.152 14.873 10.763 5.856 2.602 12.381 3.912 19.589 3.912 7.209 0 13.735-1.31 19.593-3.914 5.879-2.613 10.898-6.2 15.069-10.761 4.169-4.561 7.37-9.976 9.595-16.259l.003-.008.003-.01c2.354-6.275 3.537-13.154 3.537-20.648 0-6.951-1.18-13.427-3.532-19.436l-.003-.008-.003-.01c-2.223-6.013-5.42-11.23-9.591-15.66l-.005-.006zm-54.666 83.72c-5.867-2.667-10.934-6.333-15.2-11-4.267-4.667-7.6-10.2-10-16.6-2.267-6.4-3.4-13.4-3.4-21 0-7.067 1.133-13.667 3.4-19.8 2.4-6.133 5.733-11.467 10-16 4.266-4.667 9.333-8.267 15.2-10.8 6-2.667 12.666-4 20-4 7.333 0 14 1.333 20 4 6 2.533 11.133 6.133 15.4 10.8 4.266 4.533 7.533 9.867 9.8 16 2.4 6.133 3.6 12.733 3.6 19.8 0 7.6-1.2 14.6-3.6 21-2.267 6.4-5.534 11.933-9.8 16.6-4.267 4.667-9.4 8.333-15.4 11s-12.667 4-20 4c-7.334 0-14-1.333-20-4zm189.327-87.312a1 1 0 01-1.549-.12c-2.548-3.695-5.983-6.37-10.334-8.034l-.017-.006-.016-.007c-4.273-1.813-8.806-2.721-13.61-2.721-2.855 0-5.642.324-8.362.971a23.433 23.433 0 00-7.082 3.06c-1.994 1.373-3.621 3.185-4.882 5.455l-.006.01-.006.011c-1.225 2.083-1.862 4.633-1.862 7.693 0 4.54 1.559 7.889 4.605 10.204 3.24 2.462 7.283 4.62 12.149 6.46 4.907 1.857 10.283 3.65 16.13 5.377 5.948 1.757 11.431 4.193 16.444 7.31 5.062 3.146 9.298 7.317 12.708 12.5 3.474 5.28 5.164 12.226 5.164 20.749 0 7.723-1.423 14.545-4.301 20.439l-.004.008c-2.864 5.728-6.757 10.511-11.676 14.338-4.775 3.819-10.357 6.674-16.733 8.573-6.365 1.896-13.062 2.842-20.086 2.842-8.913 0-17.495-1.486-25.739-4.459-8.307-2.996-15.45-8.035-21.424-15.095a1 1 0 01.067-1.364l19-18.4a1 1 0 011.532.169c2.972 4.523 6.844 8.074 11.626 10.662 4.925 2.46 10.101 3.687 15.538 3.687a32.3 32.3 0 008.537-1.165c2.835-.773 5.403-1.93 7.708-3.467 2.279-1.519 4.107-3.411 5.496-5.679 1.366-2.365 2.059-5.052 2.059-8.089 0-4.968-1.58-8.662-4.643-11.234-3.231-2.714-7.261-4.996-12.111-6.83l-.011-.005-.011-.004c-4.899-1.986-10.267-3.843-16.107-5.568-5.941-1.755-11.419-4.12-16.428-7.1l-.008-.005-.009-.005c-5.056-3.142-9.29-7.242-12.7-12.29l-.007-.01c-3.475-5.28-5.165-12.226-5.165-20.749 0-7.468 1.494-13.974 4.524-19.482l.005-.008.004-.008c3.135-5.452 7.162-9.96 12.082-13.513 5.036-3.674 10.745-6.39 17.119-8.153A72.684 72.684 0 01940.778.8c7.569 0 14.873 1.149 21.908 3.448 7.209 2.313 13.669 6.123 19.373 11.42a1 1 0 01.045 1.42l-18.4 19.4zM962.378 5.2c-6.933-2.267-14.133-3.4-21.6-3.4a71.71 71.71 0 00-19.2 2.6c-6.267 1.733-11.867 4.4-16.8 8-4.8 3.467-8.733 7.867-11.8 13.2-2.933 5.333-4.4 11.667-4.4 19 0 8.4 1.667 15.133 5 20.2 3.333 4.933 7.467 8.933 12.4 12 4.933 2.933 10.333 5.267 16.2 7 5.867 1.733 11.267 3.6 16.2 5.6 4.933 1.867 9.067 4.2 12.4 7s5 6.8 5 12c0 3.2-.733 6.067-2.2 8.6-1.467 2.4-3.4 4.4-5.8 6-2.4 1.6-5.067 2.8-8 3.6-2.933.8-5.867 1.2-8.8 1.2-5.6 0-10.933-1.267-16-3.8-4.633-2.504-8.443-5.891-11.43-10.16a.86.86 0 00-1.299-.134l-15.584 15.092c-1.512 1.464-1.642 3.863-.177 5.375 5.323 5.492 11.486 9.501 18.49 12.027 8.133 2.933 16.6 4.4 25.4 4.4 6.933 0 13.533-.933 19.8-2.8 6.267-1.867 11.733-4.667 16.4-8.4 4.8-3.733 8.6-8.4 11.4-14 2.8-5.733 4.2-12.4 4.2-20 0-8.4-1.667-15.133-5-20.2s-7.467-9.133-12.4-12.2c-4.933-3.067-10.333-5.467-16.2-7.2-5.867-1.733-11.267-3.533-16.2-5.4-4.933-1.867-9.067-4.067-12.4-6.6-3.333-2.533-5-6.2-5-11 0-3.2.667-5.933 2-8.2 1.333-2.4 3.067-4.333 5.2-5.8a24.428 24.428 0 017.4-3.2c2.8-.667 5.667-1 8.6-1 4.933 0 9.6.933 14 2.8 4.204 1.608 7.606 4.132 10.205 7.575a.853.853 0 001.296.087l17.011-17.936a.976.976 0 00-.051-1.4c-5.416-4.85-11.503-8.358-18.261-10.526zM992.7 9.862c-1.031-2.624.904-5.462 3.723-5.462h22.487c1.69 0 3.2 1.057 3.77 2.643l36.96 102.45 38.12-102.487a4 4 0 013.75-2.606h20.66c2.84 0 4.78 2.869 3.71 5.498l-54.77 135.6a4.002 4.002 0 01-3.71 2.502h-17.73a4.003 4.003 0 01-3.73-2.538L992.7 9.862zm67.87 99.98c-.32.873-1.56.867-1.87-.01l-36.72-101.79a4.013 4.013 0 00-3.77-2.642h-20.32c-2.819 0-4.754 2.838-3.723 5.462l52.463 133.6a3.99 3.99 0 003.72 2.538h16.37c1.63 0 3.1-.99 3.71-2.502l53.97-133.6c1.06-2.629-.87-5.498-3.71-5.498h-18.49a4.01 4.01 0 00-3.75 2.606l-37.88 101.836zM1140.22 8.4a4 4 0 014-4h19.2a4 4 0 014 4V144a4 4 0 01-4 4h-19.2a4 4 0 01-4-4V8.4zm45.86 20.8c-2.2 0-4-1.79-4-4V8.4c0-2.21 1.8-4 4-4h106a4 4 0 014 4v16.8a4 4 0 01-4 4h-35.4c-2.2 0-4 1.79-4 4V144a4 4 0 01-4 4h-19.2c-2.2 0-4-1.791-4-4V33.2a4 4 0 00-4-4h-35.4zm36.4-1a4 4 0 014 4V143c0 2.209 1.8 4 4 4h17.2a4 4 0 004-4V32.2c0-2.21 1.8-4 4-4h35.4a4 4 0 004-4V9.4a4 4 0 00-4-4h-104c-2.2 0-4 1.79-4 4v14.8c0 2.21 1.8 4 4 4h35.4zM673.8 56.8c1.867-2.667 2.8-6.333 2.8-11l-2.8 11zm2.8-11c0-4.133-.867-7.467-2.6-10l2.6 10zm-2.6-10a5.379 5.379 0 00-.07-.101l.07.101zm471.22-30.4a4 4 0 00-4 4V143a4 4 0 004 4h17.2a4 4 0 004-4V9.4a4 4 0 00-4-4h-17.2z" fill="#fff"/></svg>