<svg width="1261" height="152" fill="none" xmlns="http://www.w3.org/2000/svg"><path fill-rule="evenodd" clip-rule="evenodd" d="M0 3.629h91.849v17.74H18.975v42.737h68.03v17.74h-68.03v48.785h76.508v17.74H0V3.629zm17.966 128.01v-50.8h68.029V65.113H17.966V20.361H90.84V4.637H1.01v142.726h93.463v-15.724H17.966zM119.661 3.629h18.975V130.63h65.405v17.74h-84.38V3.629zm17.966 128.01V4.637H120.67v142.726h82.361v-15.724h-65.404zm82.967-128.01h91.849v17.74h-72.874v42.737h68.029v17.74h-68.029v48.785h76.507v17.74h-95.482V3.629zm17.966 128.01v-50.8h68.029V65.113H238.56V20.361h72.873V4.637h-89.83v142.726h93.464v-15.724H238.56zM340.255 3.629h18.975v61.687h1.01l65.001-61.687h140.07v17.74h-47.236V148.37h-18.976V21.369h-47.236V4.356l-71.008 65.44 75.003 78.575h-27.624l-68.029-72.573h-.975v72.573h-18.975V3.629zm17.966 71.161h2.422l68.029 72.573h24.829l-74.084-77.612L450.07 4.637h-24.426l-65.001 61.687h-2.422V4.637h-16.957v142.726h16.957V74.79zm141.888-54.43v127.003h16.957V20.361h47.236V4.637h-111.43V20.36h47.237zm83.213-16.73h37.547c6.903 0 13.739.405 20.509 1.216 6.961.819 13.199 2.594 18.7 5.341 5.551 2.771 10.059 6.86 13.517 12.247 3.509 5.33 5.209 12.534 5.209 21.514 0 10.7-3.236 19.436-9.775 26.106-6.224 6.347-14.689 10.44-25.318 12.338l40.737 65.98h-23.17L622.52 84.265h-20.223v64.106h-18.975V3.629zm17.966 79.628h21.801l38.759 64.106h20.792l-40.575-65.718c.361-.057.72-.116 1.076-.177 10.657-1.838 19.046-5.878 25.166-12.12 6.325-6.451 9.488-14.918 9.488-25.401 0-8.87-1.682-15.859-5.047-20.966-3.364-5.241-7.738-9.206-13.121-11.894-5.383-2.687-11.506-4.434-18.37-5.24a171.202 171.202 0 00-20.388-1.21h-36.538v142.726h16.957V83.257zm29.62-17.133h.001c5.032-.265 9.577-1.123 13.644-2.565l.01-.003c4.157-1.427 7.501-3.62 10.063-6.562l.002-.003c2.613-2.982 3.99-7.282 3.99-13.044 0-4.984-.986-8.87-2.864-11.747-1.917-2.935-4.467-5.163-7.666-6.697l-.023-.01-.021-.013c-3.106-1.68-6.685-2.79-10.751-3.313h-.005a92.194 92.194 0 00-12.18-.798h-22.811v45.156h14.131c4.691 0 9.517-.134 14.48-.401zm-29.62 1.41V20.36h23.82c4.172 0 8.277.268 12.314.806 4.172.538 7.873 1.68 11.102 3.427 3.365 1.613 6.056 3.965 8.075 7.056 2.019 3.09 3.028 7.19 3.028 12.297 0 5.913-1.413 10.483-4.239 13.708-2.692 3.091-6.191 5.376-10.497 6.854-4.172 1.479-8.815 2.352-13.929 2.621-4.979.269-9.824.403-14.534.403h-15.14zm142.401 78.746l-.005-.002c-9.13-3.811-17.112-9.055-23.935-15.733l-.008-.007-.007-.008c-6.69-6.817-11.941-14.857-15.756-24.109l-.003-.008-.004-.009c-3.683-9.399-5.519-19.537-5.519-30.404s1.836-20.94 5.521-30.208l.003-.007c3.815-9.388 9.069-17.433 15.765-24.121 6.825-6.815 14.808-12.13 23.943-15.941l.005-.003C752.974 1.902 763.132 0 774.151 0c11.019 0 21.112 1.902 30.266 5.723 9.265 3.81 17.25 9.123 23.942 15.94 6.832 6.689 12.087 14.735 15.768 24.127 3.82 9.269 5.724 19.342 5.724 30.21 0 10.87-1.905 21.01-5.725 30.412-3.682 9.261-8.938 17.306-15.766 24.126-6.694 6.684-14.679 11.929-23.944 15.74-9.153 3.82-19.246 5.722-30.265 5.722-11.019 0-21.177-1.902-30.462-5.72zm60.339-.933c9.151-3.763 17.024-8.937 23.618-15.522 6.729-6.72 11.91-14.649 15.543-23.788 3.769-9.273 5.653-19.286 5.653-30.037 0-10.751-1.884-20.697-5.653-29.836-3.633-9.273-8.814-17.202-15.543-23.787-6.594-6.72-14.467-11.961-23.618-15.724-9.017-3.764-18.976-5.645-29.877-5.645-10.9 0-20.926 1.881-30.078 5.645-9.016 3.763-16.889 9.004-23.618 15.724-6.594 6.585-11.776 14.514-15.544 23.787-3.633 9.14-5.45 19.085-5.45 29.836 0 10.751 1.817 20.764 5.45 30.037 3.768 9.139 8.95 17.068 15.544 23.788 6.729 6.585 14.602 11.759 23.618 15.522 9.152 3.764 19.178 5.645 30.078 5.645 10.901 0 20.86-1.881 29.877-5.645zm-7.481-15.635l.007-.003c6.878-3.037 12.752-7.192 17.633-12.462 4.888-5.277 8.656-11.414 11.303-18.42l.004-.01c2.778-7.134 4.171-14.737 4.171-22.817s-1.393-15.614-4.169-22.61l-.004-.01-.004-.011c-2.648-7.141-6.416-13.342-11.301-18.616-4.881-5.27-10.755-9.425-17.633-12.462l-.007-.003c-6.719-3.027-14.179-4.548-22.396-4.548-8.214 0-15.744 1.52-22.601 4.55-6.742 3.036-12.551 7.19-17.435 12.463-4.886 5.276-8.723 11.481-11.506 18.626-2.644 7-3.971 14.537-3.971 22.621 0 8.082 1.326 15.686 3.971 22.822 2.782 7.008 6.618 13.147 11.506 18.425 4.884 5.272 10.692 9.426 17.433 12.463 6.858 3.029 14.388 4.55 22.603 4.55 8.217 0 15.677-1.521 22.396-4.548zm-45.408.919c-6.864-3.091-12.785-7.324-17.765-12.7-4.979-5.376-8.882-11.625-11.708-18.748-2.691-7.257-4.037-14.985-4.037-23.183s1.346-15.858 4.037-22.981c2.826-7.258 6.729-13.574 11.708-18.95 4.98-5.376 10.901-9.61 17.765-12.7 6.998-3.091 14.669-4.637 23.012-4.637 8.344 0 15.948 1.546 22.811 4.637 6.998 3.09 12.987 7.324 17.966 12.7 4.98 5.376 8.815 11.692 11.507 18.95 2.826 7.123 4.239 14.783 4.239 22.981 0 8.198-1.413 15.926-4.239 23.183-2.692 7.123-6.527 13.372-11.507 18.748-4.979 5.376-10.968 9.609-17.966 12.7-6.863 3.091-14.467 4.637-22.811 4.637-8.343 0-16.014-1.546-23.012-4.637zm192.544-99.256l-.624-1.01c-2.723-4.402-6.334-7.551-10.844-9.481l-.011-.005-.011-.005c-4.58-2.09-9.349-3.134-14.316-3.134-3.683 0-7.299.46-10.85 1.379-3.534.915-6.73 2.284-9.593 4.102-2.684 1.79-4.863 4.154-6.536 7.11-1.65 2.916-2.494 6.368-2.494 10.39 0 3.115.453 5.874 1.34 8.29 1.01 2.256 2.593 4.35 4.779 6.276 2.187 1.928 5.186 3.76 9.03 5.48 3.855 1.726 8.592 3.46 14.218 5.199l.007.002a246.896 246.896 0 0116.009 5.666c5.327 2.046 9.99 4.645 13.98 7.804 4.159 3.185 7.415 7.2 9.768 12.03 2.516 4.755 3.743 10.704 3.743 17.795 0 7.257-1.44 13.609-4.36 19.024-2.895 5.369-6.76 9.851-11.591 13.435l-.004.003c-4.685 3.44-10.115 5.976-16.276 7.618-6.146 1.772-12.495 2.657-19.043 2.657-4.232 0-8.463-.409-12.692-1.225a62.907 62.907 0 01-12.294-3.276l-.02-.007-.019-.009a57.028 57.028 0 01-10.891-6.156l-.011-.007-.01-.008c-3.457-2.624-6.427-5.798-8.91-9.517l-.507-.76 16.153-13.218.598 1.013c2.994 5.07 7.151 8.898 12.492 11.5 5.379 2.62 11.082 3.93 17.12 3.93 3.533 0 7.07-.522 10.614-1.571l.01-.003c3.668-1.047 6.928-2.546 9.789-4.491a26.003 26.003 0 006.986-7.563c1.778-2.915 2.679-6.291 2.679-10.16 0-4.336-.725-7.711-2.095-10.198l-.005-.009-.005-.009c-1.388-2.647-3.547-4.944-6.521-6.881-3.006-1.958-6.827-3.74-11.484-5.334a8116.714 8116.714 0 00-16.54-5.64c-5.147-1.624-9.896-3.453-14.245-5.488l-.011-.006-.012-.005c-4.382-2.189-8.229-4.794-11.535-7.82l-.016-.014-.015-.016c-3.186-3.18-5.744-6.912-7.676-11.184l-.007-.017-.008-.018c-1.81-4.45-2.698-9.691-2.698-15.7 0-6.988 1.372-13.135 4.153-18.412 2.76-5.236 6.491-9.585 11.188-13.036 4.675-3.57 9.964-6.242 15.858-8.021C905.303.887 911.457 0 917.877 0c8.177 0 15.634 1.293 22.357 3.894 6.912 2.487 13.038 6.9 18.382 13.194l.645.76-15.578 13.527zM939.88 4.838c-6.594-2.553-13.929-3.83-22.003-3.83-6.325 0-12.381.874-18.168 2.62-5.787 1.748-10.968 4.368-15.544 7.863-4.576 3.36-8.209 7.593-10.901 12.7-2.691 5.107-4.037 11.088-4.037 17.942 0 5.913.875 11.02 2.624 15.32 1.884 4.167 4.374 7.796 7.469 10.886 3.23 2.957 6.998 5.51 11.305 7.661 4.306 2.016 9.017 3.83 14.13 5.443a8195.71 8195.71 0 0116.554 5.645c4.71 1.612 8.612 3.427 11.708 5.443 3.095 2.015 5.383 4.434 6.863 7.257 1.481 2.688 2.221 6.249 2.221 10.684 0 4.032-.942 7.593-2.826 10.685a27.023 27.023 0 01-7.268 7.862c-2.96 2.015-6.325 3.561-10.093 4.636-3.633 1.075-7.267 1.613-10.901 1.613-6.19 0-12.044-1.344-17.562-4.032-5.209-2.537-9.338-6.212-12.388-11.025a31.436 31.436 0 01-.531-.869l-14.535 11.894c2.423 3.629 5.316 6.72 8.68 9.273a56.113 56.113 0 0010.699 6.048 61.836 61.836 0 0012.112 3.225 65.763 65.763 0 0012.516 1.21c6.46 0 12.718-.874 18.774-2.621 6.055-1.612 11.371-4.099 15.947-7.459 4.71-3.494 8.478-7.862 11.304-13.103 2.827-5.241 4.24-11.423 4.24-18.546 0-6.989-1.212-12.768-3.634-17.337-2.288-4.704-5.45-8.602-9.488-11.693-3.902-3.09-8.478-5.644-13.727-7.66a245.755 245.755 0 00-15.947-5.645c-5.652-1.747-10.43-3.494-14.332-5.241-3.903-1.747-6.998-3.629-9.286-5.645-2.288-2.016-3.97-4.233-5.047-6.652-.942-2.554-1.413-5.443-1.413-8.669 0-4.166.875-7.794 2.624-10.885 1.75-3.091 4.038-5.578 6.864-7.46 2.96-1.88 6.258-3.292 9.891-4.233a44.128 44.128 0 0111.103-1.41c5.114 0 10.026 1.074 14.736 3.225 4.41 1.887 7.995 4.894 10.753 9.02.188.281.372.567.551.857l13.928-12.094h.001l-.001-.002c-5.248-6.182-11.236-10.482-17.965-12.9zm27.332-1.21h21.344l43.524 116.031 44.91-116.03h20.14l-56.71 144.742h-17.73L967.212 3.629zm110.478 1.009h17.96l-55.91 142.726h-16.36L968.679 4.637h19.177l44.004 117.326h.41l45.42-117.326zm32.97-1.008h18.97V148.37h-18.97V3.629zM1261 21.369h-47.24V148.37h-18.97V21.369h-47.24V3.629H1261v17.74zm-65.2-1.008v127.002h16.95V20.361h47.24V4.637h-111.43V20.36h47.24zm-84.13-15.724v142.726h16.95V4.637h-16.95z" fill="#fff"/></svg>