<svg width="182" height="49" fill="none" xmlns="http://www.w3.org/2000/svg"><g filter="url(#filter0_dd_317_6404)"><path d="M36.727 24.733c0 2.127-1.76 3.814-3.887 3.814s-3.887-1.687-3.887-3.814c0-2.126 1.76-3.813 3.887-3.813s3.887 1.687 3.887 3.813z" fill="#1BC837"/></g><g filter="url(#filter1_dd_317_6404)"><path d="M25.14 24.733c0 2.127-1.76 3.814-3.887 3.814-2.126 0-3.886-1.687-3.886-3.814 0-2.126 1.76-3.813 3.886-3.813 2.127 0 3.887 1.687 3.887 3.813z" fill="#1BC837"/></g><g filter="url(#filter2_dd_317_6404)"><path d="M10 42.993a4 4 0 01-4-4V10.4a4 4 0 014-4h23.537a3.41 3.41 0 110 6.82h-15.91a4 4 0 00-4 4v15.027a4 4 0 004 4h15.946a3.373 3.373 0 110 6.747H10z" fill="#1BC837"/></g><g filter="url(#filter3_dd_317_6404)"><path d="M66.219 28.462a.25.25 0 01.25.25v2.298a.25.25 0 01-.25.25H58.25a.25.25 0 01-.25-.25V16.857a.25.25 0 01.25-.25h7.825a.25.25 0 01.25.25v2.297a.25.25 0 01-.25.25h-4.524a.25.25 0 00-.25.25v2.564c0 .138.112.25.25.25h3.95a.25.25 0 01.25.25v2.297a.25.25 0 01-.25.25h-3.95a.25.25 0 00-.25.25v2.697c0 .139.112.25.25.25h4.668z" fill="#0B0C0F"/></g><g filter="url(#filter4_dd_317_6404)"><path d="M77.128 28.462a.25.25 0 01.25.25v2.298a.25.25 0 01-.25.25h-7.539a.25.25 0 01-.25-.25V16.857a.25.25 0 01.25-.25h2.658a.25.25 0 01.25.25v11.355c0 .139.112.25.25.25h4.38z" fill="#0B0C0F"/></g><g filter="url(#filter5_dd_317_6404)"><path d="M87.75 28.462a.25.25 0 01.25.25v2.298a.25.25 0 01-.25.25h-7.969a.25.25 0 01-.25-.25V16.857a.25.25 0 01.25-.25h7.682a.25.25 0 01.25.25v2.297a.25.25 0 01-.25.25H82.94a.25.25 0 00-.25.25v2.564c0 .138.112.25.25.25h4.094a.25.25 0 01.25.25v2.297a.25.25 0 01-.25.25H82.94a.25.25 0 00-.25.25v2.697c0 .139.112.25.25.25h4.811z" fill="#0B0C0F"/></g><g filter="url(#filter6_dd_317_6404)"><path d="M95.078 26.156a.25.25 0 00-.424-.03l-.578.806a.25.25 0 00-.047.146v3.932a.25.25 0 01-.25.25H91.12a.25.25 0 01-.25-.25V16.857a.25.25 0 01.25-.25h2.658a.25.25 0 01.25.25v4.354c0 .26.347.347.47.118l.391-.726 2.082-3.865a.25.25 0 01.22-.131h3.131a.25.25 0 01.211.383l-3.698 5.884a.25.25 0 00-.005.257l4.447 7.755a.25.25 0 01-.217.374h-3.15a.25.25 0 01-.22-.134l-2.613-4.97z" fill="#0B0C0F"/></g><g filter="url(#filter7_dd_317_6404)"><path d="M111.971 19.154a.25.25 0 01-.25.25h-2.657a.25.25 0 00-.25.25V31.01a.25.25 0 01-.25.25h-2.802a.25.25 0 01-.25-.25V19.654a.25.25 0 00-.25-.25h-2.658a.25.25 0 01-.25-.25v-2.297a.25.25 0 01.25-.25h9.117a.25.25 0 01.25.25v2.297z" fill="#0B0C0F"/></g><g filter="url(#filter8_dd_317_6404)"><path d="M117.426 23.284c0 .138.112.25.25.25h1.042c1.149 0 1.723-.666 1.723-1.998 0-1.333-.574-1.999-1.723-1.999h-1.042a.25.25 0 00-.25.25v3.497zm1.218 3.183a.248.248 0 00-.222-.136h-.746a.25.25 0 00-.25.25v4.429a.25.25 0 01-.25.25h-2.801a.25.25 0 01-.25-.25V16.857a.25.25 0 01.25-.25h4.343c3.158 0 5.024 1.865 5.024 4.929 0 1.894-.774 3.31-1.956 4.133a.26.26 0 00-.085.337l2.704 5.018a.25.25 0 01-.22.37h-2.873a.25.25 0 01-.223-.137l-2.445-4.79z" fill="#0B0C0F"/></g><g filter="url(#filter9_dd_317_6404)"><path d="M133.359 26.598v-5.196c0-1.332-.574-2.13-1.866-2.13-1.292 0-1.722.665-1.722 2.13v5.196c0 1.332.574 2.13 1.866 2.13 1.292 0 1.722-.798 1.722-2.13zm-7.033 0v-5.196c0-3.197 2.009-5.062 5.167-5.062 3.302 0 5.168 1.865 5.168 5.062v5.196c0 3.197-2.01 5.062-5.168 5.062-3.158-.134-5.167-1.999-5.167-5.062z" fill="#0B0C0F"/></g><g filter="url(#filter10_dd_317_6404)"><path d="M138.675 27.247a.242.242 0 01.245-.25h2.801c.138 0 .249.113.259.25.077 1.023.648 1.482 1.714 1.482 1.004 0 1.579-.533 1.579-1.332 0-2.398-6.316-2.664-6.316-7.194 0-2.264 1.722-3.863 4.593-3.863 2.919 0 4.626 1.5 4.732 4.013a.242.242 0 01-.245.25h-2.802a.269.269 0 01-.261-.25c-.074-.777-.513-1.215-1.424-1.215-.861 0-1.292.4-1.292 1.065 0 2.265 6.316 2.398 6.316 7.06 0 2.398-1.866 4.13-5.024 4.13-2.788.13-4.764-1.374-4.875-4.146z" fill="#0B0C0F"/></g><g filter="url(#filter11_dd_317_6404)"><path d="M149.806 16.92a.25.25 0 01.241-.313h2.774a.25.25 0 01.244.2l1.394 6.727c.282 1.045.563 2.858.71 4.058a.08.08 0 00.08.071.08.08 0 00.08-.07c.146-1.201.428-3.014.709-4.06l1.395-6.727a.25.25 0 01.244-.2h2.777a.25.25 0 01.242.313l-3.605 14.153a.25.25 0 01-.242.188h-3.058a.25.25 0 01-.242-.186l-3.743-14.153z" fill="#0B0C0F"/></g><g filter="url(#filter12_dd_317_6404)"><path d="M165.836 16.607h-2.801a.25.25 0 00-.25.25V31.01c0 .138.112.25.25.25h2.801a.25.25 0 00.25-.25V16.857a.25.25 0 00-.25-.25z" fill="#0B0C0F"/></g><g filter="url(#filter13_dd_317_6404)"><path d="M178 19.154a.25.25 0 01-.25.25h-2.658a.25.25 0 00-.25.25V31.01a.25.25 0 01-.25.25h-2.801a.25.25 0 01-.25-.25V19.654a.25.25 0 00-.25-.25h-2.658a.25.25 0 01-.25-.25v-2.297a.25.25 0 01.25-.25h9.117a.25.25 0 01.25.25v2.297z" fill="#0B0C0F"/></g><defs><filter id="filter0_dd_317_6404" x="20.953" y="12.92" width="21.773" height="21.627" filterUnits="userSpaceOnUse" color-interpolation-filters="sRGB"><feFlood flood-opacity="0" result="BackgroundImageFix"/><feColorMatrix in="SourceAlpha" values="0 0 0 0 0 0 0 0 0 0 0 0 0 0 0 0 0 0 127 0" result="hardAlpha"/><feOffset dx="-4" dy="-4"/><feGaussianBlur stdDeviation="2"/><feColorMatrix values="0 0 0 0 1 0 0 0 0 1 0 0 0 0 1 0 0 0 1 0"/><feBlend in2="BackgroundImageFix" result="effect1_dropShadow_317_6404"/><feColorMatrix in="SourceAlpha" values="0 0 0 0 0 0 0 0 0 0 0 0 0 0 0 0 0 0 127 0" result="hardAlpha"/><feOffset dx="2" dy="2"/><feGaussianBlur stdDeviation="2"/><feColorMatrix values="0 0 0 0 0.388235 0 0 0 0 0.423529 0 0 0 0 0.513726 0 0 0 0.4 0"/><feBlend in2="effect1_dropShadow_317_6404" result="effect2_dropShadow_317_6404"/><feBlend in="SourceGraphic" in2="effect2_dropShadow_317_6404" result="shape"/></filter><filter id="filter1_dd_317_6404" x="9.367" y="12.92" width="21.773" height="21.627" filterUnits="userSpaceOnUse" color-interpolation-filters="sRGB"><feFlood flood-opacity="0" result="BackgroundImageFix"/><feColorMatrix in="SourceAlpha" values="0 0 0 0 0 0 0 0 0 0 0 0 0 0 0 0 0 0 127 0" result="hardAlpha"/><feOffset dx="-4" dy="-4"/><feGaussianBlur stdDeviation="2"/><feColorMatrix values="0 0 0 0 1 0 0 0 0 1 0 0 0 0 1 0 0 0 1 0"/><feBlend in2="BackgroundImageFix" result="effect1_dropShadow_317_6404"/><feColorMatrix in="SourceAlpha" values="0 0 0 0 0 0 0 0 0 0 0 0 0 0 0 0 0 0 127 0" result="hardAlpha"/><feOffset dx="2" dy="2"/><feGaussianBlur stdDeviation="2"/><feColorMatrix values="0 0 0 0 0.388235 0 0 0 0 0.423529 0 0 0 0 0.513726 0 0 0 0.4 0"/><feBlend in2="effect1_dropShadow_317_6404" result="effect2_dropShadow_317_6404"/><feBlend in="SourceGraphic" in2="effect2_dropShadow_317_6404" result="shape"/></filter><filter id="filter2_dd_317_6404" x="0" y=".4" width="42.947" height="48.593" filterUnits="userSpaceOnUse" color-interpolation-filters="sRGB"><feFlood flood-opacity="0" result="BackgroundImageFix"/><feColorMatrix in="SourceAlpha" values="0 0 0 0 0 0 0 0 0 0 0 0 0 0 0 0 0 0 127 0" result="hardAlpha"/><feOffset dx="-2" dy="-2"/><feGaussianBlur stdDeviation="2"/><feColorMatrix values="0 0 0 0 1 0 0 0 0 1 0 0 0 0 1 0 0 0 1 0"/><feBlend in2="BackgroundImageFix" result="effect1_dropShadow_317_6404"/><feColorMatrix in="SourceAlpha" values="0 0 0 0 0 0 0 0 0 0 0 0 0 0 0 0 0 0 127 0" result="hardAlpha"/><feOffset dx="2" dy="2"/><feGaussianBlur stdDeviation="2"/><feColorMatrix values="0 0 0 0 0.388235 0 0 0 0 0.423529 0 0 0 0 0.513726 0 0 0 0.4 0"/><feBlend in2="effect1_dropShadow_317_6404" result="effect2_dropShadow_317_6404"/><feBlend in="SourceGraphic" in2="effect2_dropShadow_317_6404" result="shape"/></filter><filter id="filter3_dd_317_6404" x="54" y="12.607" width="16.469" height="22.653" filterUnits="userSpaceOnUse" color-interpolation-filters="sRGB"><feFlood flood-opacity="0" result="BackgroundImageFix"/><feColorMatrix in="SourceAlpha" values="0 0 0 0 0 0 0 0 0 0 0 0 0 0 0 0 0 0 127 0" result="hardAlpha"/><feOffset dx="-2" dy="-2"/><feGaussianBlur stdDeviation="1"/><feColorMatrix values="0 0 0 0 1 0 0 0 0 1 0 0 0 0 1 0 0 0 1 0"/><feBlend in2="BackgroundImageFix" result="effect1_dropShadow_317_6404"/><feColorMatrix in="SourceAlpha" values="0 0 0 0 0 0 0 0 0 0 0 0 0 0 0 0 0 0 127 0" result="hardAlpha"/><feOffset dx="2" dy="2"/><feGaussianBlur stdDeviation="1"/><feColorMatrix values="0 0 0 0 0.388235 0 0 0 0 0.423529 0 0 0 0 0.513726 0 0 0 0.4 0"/><feBlend in2="effect1_dropShadow_317_6404" result="effect2_dropShadow_317_6404"/><feBlend in="SourceGraphic" in2="effect2_dropShadow_317_6404" result="shape"/></filter><filter id="filter4_dd_317_6404" x="65.339" y="12.607" width="16.038" height="22.653" filterUnits="userSpaceOnUse" color-interpolation-filters="sRGB"><feFlood flood-opacity="0" result="BackgroundImageFix"/><feColorMatrix in="SourceAlpha" values="0 0 0 0 0 0 0 0 0 0 0 0 0 0 0 0 0 0 127 0" result="hardAlpha"/><feOffset dx="-2" dy="-2"/><feGaussianBlur stdDeviation="1"/><feColorMatrix values="0 0 0 0 1 0 0 0 0 1 0 0 0 0 1 0 0 0 1 0"/><feBlend in2="BackgroundImageFix" result="effect1_dropShadow_317_6404"/><feColorMatrix in="SourceAlpha" values="0 0 0 0 0 0 0 0 0 0 0 0 0 0 0 0 0 0 127 0" result="hardAlpha"/><feOffset dx="2" dy="2"/><feGaussianBlur stdDeviation="1"/><feColorMatrix values="0 0 0 0 0.388235 0 0 0 0 0.423529 0 0 0 0 0.513726 0 0 0 0.4 0"/><feBlend in2="effect1_dropShadow_317_6404" result="effect2_dropShadow_317_6404"/><feBlend in="SourceGraphic" in2="effect2_dropShadow_317_6404" result="shape"/></filter><filter id="filter5_dd_317_6404" x="75.531" y="12.607" width="16.469" height="22.653" filterUnits="userSpaceOnUse" color-interpolation-filters="sRGB"><feFlood flood-opacity="0" result="BackgroundImageFix"/><feColorMatrix in="SourceAlpha" values="0 0 0 0 0 0 0 0 0 0 0 0 0 0 0 0 0 0 127 0" result="hardAlpha"/><feOffset dx="-2" dy="-2"/><feGaussianBlur stdDeviation="1"/><feColorMatrix values="0 0 0 0 1 0 0 0 0 1 0 0 0 0 1 0 0 0 1 0"/><feBlend in2="BackgroundImageFix" result="effect1_dropShadow_317_6404"/><feColorMatrix in="SourceAlpha" values="0 0 0 0 0 0 0 0 0 0 0 0 0 0 0 0 0 0 127 0" result="hardAlpha"/><feOffset dx="2" dy="2"/><feGaussianBlur stdDeviation="1"/><feColorMatrix values="0 0 0 0 0.388235 0 0 0 0 0.423529 0 0 0 0 0.513726 0 0 0 0.4 0"/><feBlend in2="effect1_dropShadow_317_6404" result="effect2_dropShadow_317_6404"/><feBlend in="SourceGraphic" in2="effect2_dropShadow_317_6404" result="shape"/></filter><filter id="filter6_dd_317_6404" x="86.871" y="12.607" width="18.441" height="22.653" filterUnits="userSpaceOnUse" color-interpolation-filters="sRGB"><feFlood flood-opacity="0" result="BackgroundImageFix"/><feColorMatrix in="SourceAlpha" values="0 0 0 0 0 0 0 0 0 0 0 0 0 0 0 0 0 0 127 0" result="hardAlpha"/><feOffset dx="-2" dy="-2"/><feGaussianBlur stdDeviation="1"/><feColorMatrix values="0 0 0 0 1 0 0 0 0 1 0 0 0 0 1 0 0 0 1 0"/><feBlend in2="BackgroundImageFix" result="effect1_dropShadow_317_6404"/><feColorMatrix in="SourceAlpha" values="0 0 0 0 0 0 0 0 0 0 0 0 0 0 0 0 0 0 127 0" result="hardAlpha"/><feOffset dx="2" dy="2"/><feGaussianBlur stdDeviation="1"/><feColorMatrix values="0 0 0 0 0.388235 0 0 0 0 0.423529 0 0 0 0 0.513726 0 0 0 0.4 0"/><feBlend in2="effect1_dropShadow_317_6404" result="effect2_dropShadow_317_6404"/><feBlend in="SourceGraphic" in2="effect2_dropShadow_317_6404" result="shape"/></filter><filter id="filter7_dd_317_6404" x="98.354" y="12.607" width="17.617" height="22.653" filterUnits="userSpaceOnUse" color-interpolation-filters="sRGB"><feFlood flood-opacity="0" result="BackgroundImageFix"/><feColorMatrix in="SourceAlpha" values="0 0 0 0 0 0 0 0 0 0 0 0 0 0 0 0 0 0 127 0" result="hardAlpha"/><feOffset dx="-2" dy="-2"/><feGaussianBlur stdDeviation="1"/><feColorMatrix values="0 0 0 0 1 0 0 0 0 1 0 0 0 0 1 0 0 0 1 0"/><feBlend in2="BackgroundImageFix" result="effect1_dropShadow_317_6404"/><feColorMatrix in="SourceAlpha" values="0 0 0 0 0 0 0 0 0 0 0 0 0 0 0 0 0 0 127 0" result="hardAlpha"/><feOffset dx="2" dy="2"/><feGaussianBlur stdDeviation="1"/><feColorMatrix values="0 0 0 0 0.388235 0 0 0 0 0.423529 0 0 0 0 0.513726 0 0 0 0.4 0"/><feBlend in2="effect1_dropShadow_317_6404" result="effect2_dropShadow_317_6404"/><feBlend in="SourceGraphic" in2="effect2_dropShadow_317_6404" result="shape"/></filter><filter id="filter8_dd_317_6404" x="110.125" y="12.607" width="18.31" height="22.786" filterUnits="userSpaceOnUse" color-interpolation-filters="sRGB"><feFlood flood-opacity="0" result="BackgroundImageFix"/><feColorMatrix in="SourceAlpha" values="0 0 0 0 0 0 0 0 0 0 0 0 0 0 0 0 0 0 127 0" result="hardAlpha"/><feOffset dx="-2" dy="-2"/><feGaussianBlur stdDeviation="1"/><feColorMatrix values="0 0 0 0 1 0 0 0 0 1 0 0 0 0 1 0 0 0 1 0"/><feBlend in2="BackgroundImageFix" result="effect1_dropShadow_317_6404"/><feColorMatrix in="SourceAlpha" values="0 0 0 0 0 0 0 0 0 0 0 0 0 0 0 0 0 0 127 0" result="hardAlpha"/><feOffset dx="2" dy="2"/><feGaussianBlur stdDeviation="1"/><feColorMatrix values="0 0 0 0 0.388235 0 0 0 0 0.423529 0 0 0 0 0.513726 0 0 0 0.4 0"/><feBlend in2="effect1_dropShadow_317_6404" result="effect2_dropShadow_317_6404"/><feBlend in="SourceGraphic" in2="effect2_dropShadow_317_6404" result="shape"/></filter><filter id="filter9_dd_317_6404" x="122.326" y="12.341" width="18.335" height="23.319" filterUnits="userSpaceOnUse" color-interpolation-filters="sRGB"><feFlood flood-opacity="0" result="BackgroundImageFix"/><feColorMatrix in="SourceAlpha" values="0 0 0 0 0 0 0 0 0 0 0 0 0 0 0 0 0 0 127 0" result="hardAlpha"/><feOffset dx="-2" dy="-2"/><feGaussianBlur stdDeviation="1"/><feColorMatrix values="0 0 0 0 1 0 0 0 0 1 0 0 0 0 1 0 0 0 1 0"/><feBlend in2="BackgroundImageFix" result="effect1_dropShadow_317_6404"/><feColorMatrix in="SourceAlpha" values="0 0 0 0 0 0 0 0 0 0 0 0 0 0 0 0 0 0 127 0" result="hardAlpha"/><feOffset dx="2" dy="2"/><feGaussianBlur stdDeviation="1"/><feColorMatrix values="0 0 0 0 0.388235 0 0 0 0 0.423529 0 0 0 0 0.513726 0 0 0 0.4 0"/><feBlend in2="effect1_dropShadow_317_6404" result="effect2_dropShadow_317_6404"/><feBlend in="SourceGraphic" in2="effect2_dropShadow_317_6404" result="shape"/></filter><filter id="filter10_dd_317_6404" x="134.675" y="12.341" width="17.899" height="23.06" filterUnits="userSpaceOnUse" color-interpolation-filters="sRGB"><feFlood flood-opacity="0" result="BackgroundImageFix"/><feColorMatrix in="SourceAlpha" values="0 0 0 0 0 0 0 0 0 0 0 0 0 0 0 0 0 0 127 0" result="hardAlpha"/><feOffset dx="-2" dy="-2"/><feGaussianBlur stdDeviation="1"/><feColorMatrix values="0 0 0 0 1 0 0 0 0 1 0 0 0 0 1 0 0 0 1 0"/><feBlend in2="BackgroundImageFix" result="effect1_dropShadow_317_6404"/><feColorMatrix in="SourceAlpha" values="0 0 0 0 0 0 0 0 0 0 0 0 0 0 0 0 0 0 127 0" result="hardAlpha"/><feOffset dx="2" dy="2"/><feGaussianBlur stdDeviation="1"/><feColorMatrix values="0 0 0 0 0.388235 0 0 0 0 0.423529 0 0 0 0 0.513726 0 0 0 0.4 0"/><feBlend in2="effect1_dropShadow_317_6404" result="effect2_dropShadow_317_6404"/><feBlend in="SourceGraphic" in2="effect2_dropShadow_317_6404" result="shape"/></filter><filter id="filter11_dd_317_6404" x="145.797" y="12.607" width="18.907" height="22.653" filterUnits="userSpaceOnUse" color-interpolation-filters="sRGB"><feFlood flood-opacity="0" result="BackgroundImageFix"/><feColorMatrix in="SourceAlpha" values="0 0 0 0 0 0 0 0 0 0 0 0 0 0 0 0 0 0 127 0" result="hardAlpha"/><feOffset dx="-2" dy="-2"/><feGaussianBlur stdDeviation="1"/><feColorMatrix values="0 0 0 0 1 0 0 0 0 1 0 0 0 0 1 0 0 0 1 0"/><feBlend in2="BackgroundImageFix" result="effect1_dropShadow_317_6404"/><feColorMatrix in="SourceAlpha" values="0 0 0 0 0 0 0 0 0 0 0 0 0 0 0 0 0 0 127 0" result="hardAlpha"/><feOffset dx="2" dy="2"/><feGaussianBlur stdDeviation="1"/><feColorMatrix values="0 0 0 0 0.388235 0 0 0 0 0.423529 0 0 0 0 0.513726 0 0 0 0.4 0"/><feBlend in2="effect1_dropShadow_317_6404" result="effect2_dropShadow_317_6404"/><feBlend in="SourceGraphic" in2="effect2_dropShadow_317_6404" result="shape"/></filter><filter id="filter12_dd_317_6404" x="158.785" y="12.607" width="11.302" height="22.653" filterUnits="userSpaceOnUse" color-interpolation-filters="sRGB"><feFlood flood-opacity="0" result="BackgroundImageFix"/><feColorMatrix in="SourceAlpha" values="0 0 0 0 0 0 0 0 0 0 0 0 0 0 0 0 0 0 127 0" result="hardAlpha"/><feOffset dx="-2" dy="-2"/><feGaussianBlur stdDeviation="1"/><feColorMatrix values="0 0 0 0 1 0 0 0 0 1 0 0 0 0 1 0 0 0 1 0"/><feBlend in2="BackgroundImageFix" result="effect1_dropShadow_317_6404"/><feColorMatrix in="SourceAlpha" values="0 0 0 0 0 0 0 0 0 0 0 0 0 0 0 0 0 0 127 0" result="hardAlpha"/><feOffset dx="2" dy="2"/><feGaussianBlur stdDeviation="1"/><feColorMatrix values="0 0 0 0 0.388235 0 0 0 0 0.423529 0 0 0 0 0.513726 0 0 0 0.4 0"/><feBlend in2="effect1_dropShadow_317_6404" result="effect2_dropShadow_317_6404"/><feBlend in="SourceGraphic" in2="effect2_dropShadow_317_6404" result="shape"/></filter><filter id="filter13_dd_317_6404" x="164.383" y="12.607" width="17.617" height="22.653" filterUnits="userSpaceOnUse" color-interpolation-filters="sRGB"><feFlood flood-opacity="0" result="BackgroundImageFix"/><feColorMatrix in="SourceAlpha" values="0 0 0 0 0 0 0 0 0 0 0 0 0 0 0 0 0 0 127 0" result="hardAlpha"/><feOffset dx="-2" dy="-2"/><feGaussianBlur stdDeviation="1"/><feColorMatrix values="0 0 0 0 1 0 0 0 0 1 0 0 0 0 1 0 0 0 1 0"/><feBlend in2="BackgroundImageFix" result="effect1_dropShadow_317_6404"/><feColorMatrix in="SourceAlpha" values="0 0 0 0 0 0 0 0 0 0 0 0 0 0 0 0 0 0 127 0" result="hardAlpha"/><feOffset dx="2" dy="2"/><feGaussianBlur stdDeviation="1"/><feColorMatrix values="0 0 0 0 0.388235 0 0 0 0 0.423529 0 0 0 0 0.513726 0 0 0 0.4 0"/><feBlend in2="effect1_dropShadow_317_6404" result="effect2_dropShadow_317_6404"/><feBlend in="SourceGraphic" in2="effect2_dropShadow_317_6404" result="shape"/></filter></defs></svg>