<svg width="109" height="64" fill="none" xmlns="http://www.w3.org/2000/svg"><g filter="url(#filter0_dd_317_6380)"><path fill-rule="evenodd" clip-rule="evenodd" d="M7.258 19.192a.61.61 0 00-.438.555.665.665 0 00.385.622c3.002 1.458 6.864 3.772 10.104 8.778v.001c2.408 3.718 6.888 10.636 14.94 8.15 2.518-.778 4.495-2.027 5.84-3.59 5.644 7.548 9.35 15.554 9.899 18.595.11.612.518 1.064.909 1.01.392-.055.463-.337.353-.948-.683-3.785-4.592-12.119-10.278-19.877 1.316-2.196 1.551-4.846.511-7.617-1.58-4.212-7.885-13.195-32.225-5.679z" fill="#F0F1F4"/></g><g filter="url(#filter1_ddd_317_6380)"><path d="M93.508 12.836c-.16-.358-.54-.592-.959-.592-40.272 0-44.62 15.4-44.62 22.022 0 8.59 7.09 14.362 17.64 14.362 13.326 0 16.118-11.7 17.618-17.985 2.017-8.463 6.457-13.403 10.097-16.764a.902.902 0 00.224-1.043z" fill="url(#paint0_linear_317_6380)"/></g><path d="M76.88 23.675c-.25-.475-.871-.672-1.386-.444C58.628 30.772 47.93 48.68 47.93 54.373c0 .529 0 1.317.713 1.317s.713-.658.713-1.317c0-7.24 10.01-21.803 27.043-29.419.514-.231.73-.804.481-1.279z" fill="#fff"/><defs><filter id="filter0_dd_317_6380" x=".82" y="10.292" width="58.477" height="53.025" filterUnits="userSpaceOnUse" color-interpolation-filters="sRGB"><feFlood flood-opacity="0" result="BackgroundImageFix"/><feColorMatrix in="SourceAlpha" values="0 0 0 0 0 0 0 0 0 0 0 0 0 0 0 0 0 0 127 0" result="hardAlpha"/><feOffset dx="-2" dy="-2"/><feGaussianBlur stdDeviation="2"/><feColorMatrix values="0 0 0 0 1 0 0 0 0 1 0 0 0 0 1 0 0 0 0.8 0"/><feBlend in2="BackgroundImageFix" result="effect1_dropShadow_317_6380"/><feColorMatrix in="SourceAlpha" values="0 0 0 0 0 0 0 0 0 0 0 0 0 0 0 0 0 0 127 0" result="hardAlpha"/><feOffset dx="2" dy="2"/><feGaussianBlur stdDeviation="4"/><feColorMatrix values="0 0 0 0 0.388235 0 0 0 0 0.423529 0 0 0 0 0.513726 0 0 0 0.4 0"/><feBlend in2="effect1_dropShadow_317_6380" result="effect2_dropShadow_317_6380"/><feBlend in="SourceGraphic" in2="effect2_dropShadow_317_6380" result="shape"/></filter><filter id="filter1_ddd_317_6380" x="35.93" y=".244" width="72.656" height="63.384" filterUnits="userSpaceOnUse" color-interpolation-filters="sRGB"><feFlood flood-opacity="0" result="BackgroundImageFix"/><feColorMatrix in="SourceAlpha" values="0 0 0 0 0 0 0 0 0 0 0 0 0 0 0 0 0 0 127 0" result="hardAlpha"/><feOffset dx="-2" dy="-2"/><feGaussianBlur stdDeviation="5"/><feColorMatrix values="0 0 0 0 1 0 0 0 0 1 0 0 0 0 1 0 0 0 1 0"/><feBlend in2="BackgroundImageFix" result="effect1_dropShadow_317_6380"/><feColorMatrix in="SourceAlpha" values="0 0 0 0 0 0 0 0 0 0 0 0 0 0 0 0 0 0 127 0" result="hardAlpha"/><feOffset dx="5" dy="5"/><feGaussianBlur stdDeviation="5"/><feColorMatrix values="0 0 0 0 0.6 0 0 0 0 0.627451 0 0 0 0 0.698039 0 0 0 0.6 0"/><feBlend in2="effect1_dropShadow_317_6380" result="effect2_dropShadow_317_6380"/><feColorMatrix in="SourceAlpha" values="0 0 0 0 0 0 0 0 0 0 0 0 0 0 0 0 0 0 127 0" result="hardAlpha"/><feOffset dx="-2" dy="-2"/><feGaussianBlur stdDeviation="2.5"/><feColorMatrix values="0 0 0 0 1 0 0 0 0 1 0 0 0 0 1 0 0 0 0.8 0"/><feBlend in2="effect2_dropShadow_317_6380" result="effect3_dropShadow_317_6380"/><feBlend in="SourceGraphic" in2="effect3_dropShadow_317_6380" result="shape"/></filter><linearGradient id="paint0_linear_317_6380" x1="70.759" y1="12.244" x2="70.759" y2="48.628" gradientUnits="userSpaceOnUse"><stop stop-color="#fff"/><stop offset="1" stop-color="#D3D6DE"/></linearGradient></defs></svg>