<svg width="40" height="38" fill="none" xmlns="http://www.w3.org/2000/svg"><path d="M2.592 29.261s2.566 1.1 3.93 1.123c1.545.028 2.949-1.123 4.493-1.123 1.544 0 2.948 1.123 4.493 1.123.578 0 1.14-.157 1.696-.353m7.289.353c1.544 0 2.948-1.123 4.492-1.123s2.948 1.151 4.493 1.123c1.364-.022 3.93-1.123 3.93-1.123M6.523 33.192c1.545.028 2.949-1.123 4.493-1.123 1.544 0 2.948 1.123 4.492 1.123 1.545 0 2.949-1.123 4.493-1.123 1.544 0 2.948 1.123 4.492 1.123 1.545 0 2.949-1.123 4.493-1.123 1.544 0 2.948 1.151 4.492 1.123M17.906 2v5.346a9.039 9.039 0 00-2.308.96l-.606-.606a4.494 4.494 0 00-6.352 0l3.785 3.785a8.908 8.908 0 00-.954 2.308h-.865a4.491 4.491 0 00-4.493 4.492h5.346a9.04 9.04 0 00.96 2.308l-.606.607a4.494 4.494 0 000 6.351l3.785-3.785c.725.427 1.5.747 2.308.955v.865a4.491 4.491 0 004.493 4.492v-5.346a9.04 9.04 0 002.308-.96l.606.606a4.494 4.494 0 006.351 0l-3.785-3.785a8.91 8.91 0 00.955-2.308h.865a4.491 4.491 0 004.492-4.492h-5.346a9.039 9.039 0 00-.96-2.308l.606-.607a4.494 4.494 0 000-6.351l-3.784 3.785a8.909 8.909 0 00-2.308-.955v-.865A4.491 4.491 0 0017.906 2z" stroke="#99A0B2" stroke-linecap="round" stroke-linejoin="round"/><circle cx="20" cy="16" r="5.5" stroke="#1BC837" stroke-linecap="round" stroke-dasharray="4 4"/><path d="M17.592 14.667l2 3.333 5-5" stroke="#1BC837" stroke-linecap="round" stroke-linejoin="round"/><path d="M36.285 9.045a2.246 2.246 0 11-4.492 0c0-1.685 2.246-4.493 2.246-4.493s2.246 2.808 2.246 4.493zM11.016 34.877c1.544 0 2.948 1.123 4.492 1.123s2.948-1.123 4.493-1.123c1.544 0 2.948 1.123 4.492 1.123s2.948-1.123 4.493-1.123" stroke="#99A0B2" stroke-linecap="round" stroke-linejoin="round"/></svg>