<svg width="46" height="36" fill="none" xmlns="http://www.w3.org/2000/svg"><path d="M3.96 4.692h8.616V33H3.961V4.692zM13.038 14h29v19h-29" stroke="#99A0B2" stroke-linecap="round" stroke-linejoin="round"/><path d="M33 21h5v9h-5v-9zm-8 0h5v9h-5v-9zm-9 0h5v9h-5v-9zm17-5h5v5h-5v-5zm-8 0h5v5h-5v-5zm-9 0h5v5h-5v-5z" stroke="#1BC837" stroke-linecap="round" stroke-linejoin="round"/><path d="M6.422 7.77h3.692v3.691H6.422V7.77zm0 6.153h3.692v3.692H6.422v-3.692zm0 6.154h3.692v3.692H6.422v-3.692zm0 6.153h3.692v3.693H6.422v-3.692zM15.653 14v-1.77a5.539 5.539 0 0111.077 0V14m2.461 0v-1.77a5.539 5.539 0 0111.077 0V14" stroke="#99A0B2" stroke-linecap="round" stroke-linejoin="round"/><path d="M21 6.692v-1.23A2.453 2.453 0 0123.462 3h8.615a2.453 2.453 0 012.462 2.462v1.23M15.653 12H26.73m2.461 0h11.077" stroke="#99A0B2" stroke-linecap="round" stroke-linejoin="round"/></svg>