<svg width="44" height="38" fill="none" xmlns="http://www.w3.org/2000/svg"><path d="M22.333 17.95L24 12l-6 8.05h3.667L20 26l6-8.05h-3.667z" stroke="#1BC837" stroke-linecap="round" stroke-linejoin="round"/><path d="M17.616 8.183C13.344 9.917 10.333 14.106 10.333 19h2.222l-3.889 5.556L4.777 19H7c0-8.283 6.716-15 15-15 5.433 0 10.194 2.889 12.827 7.222M9.177 26.783A14.98 14.98 0 0021.999 34c8.283 0 15-6.717 15-15h2.222l-3.889-5.556L31.443 19h2.223c0 4.845-2.956 9-7.161 10.767" stroke="#99A0B2" stroke-linecap="round" stroke-linejoin="round"/></svg>